<svg width="275" height="344" viewBox="0 0 275 344" fill="none" xmlns="http://www.w3.org/2000/svg">
<rect width="275" height="344" rx="20" fill="url(#paint0_linear_14_101)"/>
<path d="M72.8828 283.264V283.352H77.8047V283.264C77.8047 280.926 79.6152 279.203 82.0762 279.203C84.4316 279.203 86.1016 280.715 86.1016 282.613C86.1016 284.371 85.3105 285.654 82.7441 288.221L73.1816 297.432V301H91.6211V296.781H80.1777V296.676L86.3652 290.717C89.1602 287.939 91.2695 285.566 91.2695 282.402C91.2695 278.166 87.5957 275.072 82.252 275.072C76.7148 275.072 72.8828 278.465 72.8828 283.264ZM94.6094 283.264V283.352H99.5312V283.264C99.5312 280.926 101.342 279.203 103.803 279.203C106.158 279.203 107.828 280.715 107.828 282.613C107.828 284.371 107.037 285.654 104.471 288.221L94.9082 297.432V301H113.348V296.781H101.904V296.676L108.092 290.717C110.887 287.939 112.996 285.566 112.996 282.402C112.996 278.166 109.322 275.072 103.979 275.072C98.4414 275.072 94.6094 278.465 94.6094 283.264ZM127.867 303.408V301.141C133.387 300.666 136.498 297.889 136.498 293.424C136.498 289.609 134.248 287.271 129.748 286.287L127.867 285.918V279.361C129.748 279.625 131.084 280.996 131.137 282.666H136.023C135.953 278.623 132.789 275.74 127.867 275.301V272.875H125.389V275.283C120.115 275.705 117.021 278.482 117.021 282.789C117.021 286.445 119.289 288.889 123.525 289.873L125.389 290.312V297.168C123.156 296.922 121.645 295.586 121.521 293.758H116.494C116.512 298.064 119.869 300.842 125.389 301.158V303.408H127.867ZM131.523 293.986C131.523 295.85 130.17 297.045 127.867 297.186V290.752C130.363 291.244 131.523 292.281 131.523 293.986ZM122.102 282.35C122.102 280.68 123.473 279.449 125.389 279.344V285.408C123.244 284.951 122.102 283.896 122.102 282.35ZM142.896 306.449L151.896 275.635H147.168L138.15 306.449H142.896ZM153.566 301H158.699V289.627C158.699 287.518 160.018 286.041 161.969 286.041C163.867 286.041 165.01 287.236 165.01 289.258V301H169.949V289.557C169.949 287.465 171.232 286.041 173.184 286.041C175.17 286.041 176.26 287.236 176.26 289.416V301H181.393V288.133C181.393 284.336 178.914 281.805 175.223 281.805C172.463 281.805 170.213 283.299 169.369 285.672H169.264C168.631 283.211 166.732 281.805 164.008 281.805C161.441 281.805 159.42 283.299 158.629 285.566H158.523V282.156H153.566V301ZM193.293 301.404C198.988 301.404 202.627 297.766 202.627 291.561C202.627 285.443 198.936 281.752 193.293 281.752C187.65 281.752 183.959 285.461 183.959 291.561C183.959 297.748 187.598 301.404 193.293 301.404ZM193.293 297.484C190.762 297.484 189.162 295.357 189.162 291.578C189.162 287.834 190.797 285.672 193.293 285.672C195.789 285.672 197.406 287.834 197.406 291.578C197.406 295.357 195.807 297.484 193.293 297.484Z" fill="white"/>
<path d="M54.4297 170.734H48.9922V160.727H47.5859V172H54.4297V170.734ZM58.8984 172.141C61.1406 172.141 62.6562 170.523 62.6562 167.938C62.6562 165.344 61.1406 163.734 58.8984 163.734C56.6484 163.734 55.1328 165.344 55.1328 167.938C55.1328 170.523 56.6484 172.141 58.8984 172.141ZM58.8984 170.945C57.4609 170.945 56.5156 169.852 56.5156 167.938C56.5156 166.023 57.4609 164.93 58.8984 164.93C60.3359 164.93 61.2734 166.023 61.2734 167.938C61.2734 169.852 60.3359 170.945 58.8984 170.945ZM64.0312 172H65.3906V166.938C65.3906 165.789 66.0781 165.031 67.1328 165.031C67.4609 165.031 67.75 165.07 67.8594 165.109V163.789C67.75 163.773 67.5469 163.734 67.3125 163.734C66.3594 163.734 65.6094 164.305 65.3438 165.203H65.3125V163.875H64.0312V172ZM71.8359 164.914C73.1172 164.914 73.9688 165.883 74 167.242H69.5859C69.6719 165.891 70.5625 164.914 71.8359 164.914ZM73.9688 169.672C73.7422 170.438 72.9844 170.961 71.9531 170.961C70.4922 170.961 69.5781 169.938 69.5781 168.383V168.305H75.4062V167.789C75.4062 165.328 74.0547 163.734 71.8594 163.734C69.6172 163.734 68.1797 165.445 68.1797 167.969C68.1797 170.523 69.5938 172.141 71.9219 172.141C73.6953 172.141 75.0703 171.094 75.3047 169.672H73.9688ZM76.7812 172H78.1406V166.906C78.1406 165.781 78.9219 164.938 80 164.938C81.0078 164.938 81.6641 165.578 81.6641 166.555V172H83.0234V166.836C83.0234 165.734 83.7812 164.938 84.8594 164.938C85.9297 164.938 86.5469 165.594 86.5469 166.703V172H87.9062V166.391C87.9062 164.781 86.8672 163.734 85.2578 163.734C84.1172 163.734 83.1641 164.312 82.7109 165.281H82.6797C82.3281 164.297 81.5078 163.734 80.3984 163.734C79.3047 163.734 78.4766 164.312 78.0938 165.172H78.0625V163.875H76.7812V172ZM92.9922 172H94.3516V163.875H92.9922V172ZM93.6719 162.508C94.1406 162.508 94.5234 162.125 94.5234 161.664C94.5234 161.195 94.1406 160.82 93.6719 160.82C93.2109 160.82 92.8281 161.195 92.8281 161.664C92.8281 162.125 93.2109 162.508 93.6719 162.508ZM100.133 163.734C98.9531 163.734 98.0078 164.336 97.5078 165.25H97.4766V163.875H96.1875V174.711H97.5469V170.68H97.5781C98.0625 171.57 99 172.141 100.164 172.141C102.211 172.141 103.609 170.484 103.609 167.938C103.609 165.391 102.203 163.734 100.133 163.734ZM99.8672 170.945C98.4766 170.945 97.5391 169.75 97.5391 167.938C97.5391 166.133 98.4766 164.93 99.8672 164.93C101.312 164.93 102.219 166.102 102.219 167.938C102.219 169.781 101.312 170.945 99.8672 170.945ZM104.844 166.117C104.844 167.227 105.547 167.961 106.977 168.328L108.406 168.695C109.32 168.938 109.656 169.25 109.656 169.828C109.656 170.562 108.977 171.031 107.875 171.031C106.773 171.031 106.133 170.578 105.984 169.734H104.625C104.766 171.172 106.008 172.141 107.789 172.141C109.688 172.141 111.023 171.141 111.023 169.727C111.023 168.531 110.43 167.938 108.789 167.523L107.531 167.219C106.609 166.984 106.18 166.609 106.18 166.047C106.18 165.336 106.836 164.844 107.828 164.844C108.828 164.844 109.461 165.328 109.555 166.109H110.852C110.789 164.734 109.555 163.734 107.875 163.734C106.086 163.734 104.844 164.727 104.844 166.117ZM119.109 163.875H117.75V168.648C117.75 170.031 116.953 170.938 115.633 170.938C114.375 170.938 113.758 170.227 113.758 168.906V163.875H112.398V169.148C112.398 170.992 113.438 172.141 115.211 172.141C116.461 172.141 117.305 171.617 117.789 170.68H117.82V172H119.109V163.875ZM120.875 172H122.234V166.906C122.234 165.781 123.016 164.938 124.094 164.938C125.102 164.938 125.758 165.578 125.758 166.555V172H127.117V166.836C127.117 165.734 127.875 164.938 128.953 164.938C130.023 164.938 130.641 165.594 130.641 166.703V172H132V166.391C132 164.781 130.961 163.734 129.352 163.734C128.211 163.734 127.258 164.312 126.805 165.281H126.773C126.422 164.297 125.602 163.734 124.492 163.734C123.398 163.734 122.57 164.312 122.188 165.172H122.156V163.875H120.875V172ZM140.094 172.141C141.266 172.141 142.195 171.562 142.719 170.625H142.742V172H144.039V160.727H142.68V165.195H142.648C142.164 164.305 141.227 163.734 140.062 163.734C138.016 163.734 136.617 165.391 136.617 167.938C136.617 170.484 138.023 172.141 140.094 172.141ZM140.352 164.93C141.75 164.93 142.688 166.125 142.688 167.938C142.688 169.758 141.75 170.945 140.352 170.945C138.914 170.945 138.008 169.781 138.008 167.938C138.008 166.102 138.914 164.93 140.352 164.93ZM149.242 172.141C151.484 172.141 153 170.523 153 167.938C153 165.344 151.484 163.734 149.242 163.734C146.992 163.734 145.477 165.344 145.477 167.938C145.477 170.523 146.992 172.141 149.242 172.141ZM149.242 170.945C147.805 170.945 146.859 169.852 146.859 167.938C146.859 166.023 147.805 164.93 149.242 164.93C150.68 164.93 151.617 166.023 151.617 167.938C151.617 169.852 150.68 170.945 149.242 170.945ZM154.445 172H155.805V160.727H154.445V172ZM161.008 172.141C163.25 172.141 164.766 170.523 164.766 167.938C164.766 165.344 163.25 163.734 161.008 163.734C158.758 163.734 157.242 165.344 157.242 167.938C157.242 170.523 158.758 172.141 161.008 172.141ZM161.008 170.945C159.57 170.945 158.625 169.852 158.625 167.938C158.625 166.023 159.57 164.93 161.008 164.93C162.445 164.93 163.383 166.023 163.383 167.938C163.383 169.852 162.445 170.945 161.008 170.945ZM166.141 172H167.5V166.938C167.5 165.789 168.188 165.031 169.242 165.031C169.57 165.031 169.859 165.07 169.969 165.109V163.789C169.859 163.773 169.656 163.734 169.422 163.734C168.469 163.734 167.719 164.305 167.453 165.203H167.422V163.875H166.141V172ZM174.219 166.117C174.219 167.227 174.922 167.961 176.352 168.328L177.781 168.695C178.695 168.938 179.031 169.25 179.031 169.828C179.031 170.562 178.352 171.031 177.25 171.031C176.148 171.031 175.508 170.578 175.359 169.734H174C174.141 171.172 175.383 172.141 177.164 172.141C179.062 172.141 180.398 171.141 180.398 169.727C180.398 168.531 179.805 167.938 178.164 167.523L176.906 167.219C175.984 166.984 175.555 166.609 175.555 166.047C175.555 165.336 176.211 164.844 177.203 164.844C178.203 164.844 178.836 165.328 178.93 166.109H180.227C180.164 164.734 178.93 163.734 177.25 163.734C175.461 163.734 174.219 164.727 174.219 166.117ZM181.883 172H183.242V163.875H181.883V172ZM182.562 162.508C183.031 162.508 183.414 162.125 183.414 161.664C183.414 161.195 183.031 160.82 182.562 160.82C182.102 160.82 181.719 161.195 181.719 161.664C181.719 162.125 182.102 162.508 182.562 162.508ZM185.516 161.914V163.875H184.305V164.992H185.516V169.891C185.516 171.453 186.094 172.062 187.586 172.062C187.906 172.062 188.281 172.039 188.445 172V170.859C188.352 170.875 188.039 170.898 187.883 170.898C187.188 170.898 186.875 170.562 186.875 169.82V164.992H188.453V163.875H186.875V161.914H185.516ZM195.867 170.984C194.891 170.984 194.242 170.477 194.242 169.703C194.242 168.938 194.867 168.453 195.961 168.383L198.133 168.25V168.914C198.133 170.086 197.148 170.984 195.867 170.984ZM195.562 172.141C196.656 172.141 197.688 171.531 198.172 170.602H198.203V172H199.492V166.383C199.492 164.766 198.289 163.734 196.383 163.734C194.461 163.734 193.258 164.812 193.164 166.219H194.477C194.648 165.422 195.305 164.93 196.352 164.93C197.477 164.93 198.133 165.523 198.133 166.516V167.195L195.805 167.328C193.93 167.438 192.859 168.312 192.859 169.703C192.859 171.164 193.945 172.141 195.562 172.141ZM201.219 172H202.578V166.906C202.578 165.781 203.359 164.938 204.438 164.938C205.445 164.938 206.102 165.578 206.102 166.555V172H207.461V166.836C207.461 165.734 208.219 164.938 209.297 164.938C210.367 164.938 210.984 165.594 210.984 166.703V172H212.344V166.391C212.344 164.781 211.305 163.734 209.695 163.734C208.555 163.734 207.602 164.312 207.148 165.281H207.117C206.766 164.297 205.945 163.734 204.836 163.734C203.742 163.734 202.914 164.312 202.531 165.172H202.5V163.875H201.219V172ZM217.336 164.914C218.617 164.914 219.469 165.883 219.5 167.242H215.086C215.172 165.891 216.062 164.914 217.336 164.914ZM219.469 169.672C219.242 170.438 218.484 170.961 217.453 170.961C215.992 170.961 215.078 169.938 215.078 168.383V168.305H220.906V167.789C220.906 165.328 219.555 163.734 217.359 163.734C215.117 163.734 213.68 165.445 213.68 167.969C213.68 170.523 215.094 172.141 217.422 172.141C219.195 172.141 220.57 171.094 220.805 169.672H219.469ZM222.719 161.914V163.875H221.508V164.992H222.719V169.891C222.719 171.453 223.297 172.062 224.789 172.062C225.109 172.062 225.484 172.039 225.648 172V170.859C225.555 170.875 225.242 170.898 225.086 170.898C224.391 170.898 224.078 170.562 224.078 169.82V164.992H225.656V163.875H224.078V161.914H222.719ZM228.039 174.242L229.109 170.266H227.664L226.906 174.242H228.039ZM33.0859 185.539C32.9141 184.078 31.7031 182.734 29.6719 182.734C27.4297 182.734 25.9375 184.375 25.9375 186.938C25.9375 189.555 27.4375 191.141 29.6875 191.141C31.5312 191.141 32.8906 190 33.1016 188.383H31.7656C31.5312 189.359 30.8047 189.945 29.6953 189.945C28.2891 189.945 27.3203 188.828 27.3203 186.938C27.3203 185.094 28.2734 183.93 29.6797 183.93C30.875 183.93 31.5625 184.656 31.7578 185.539H33.0859ZM37.7188 191.141C39.9609 191.141 41.4766 189.523 41.4766 186.938C41.4766 184.344 39.9609 182.734 37.7188 182.734C35.4688 182.734 33.9531 184.344 33.9531 186.938C33.9531 189.523 35.4688 191.141 37.7188 191.141ZM37.7188 189.945C36.2812 189.945 35.3359 188.852 35.3359 186.938C35.3359 185.023 36.2812 183.93 37.7188 183.93C39.1562 183.93 40.0938 185.023 40.0938 186.938C40.0938 188.852 39.1562 189.945 37.7188 189.945ZM42.8516 191H44.2109V186.219C44.2109 184.844 45.0469 183.938 46.3281 183.938C47.5781 183.938 48.1953 184.656 48.1953 185.969V191H49.5547V185.727C49.5547 183.883 48.5234 182.734 46.7422 182.734C45.4844 182.734 44.6172 183.297 44.1641 184.172H44.1328V182.875H42.8516V191ZM51.1484 185.117C51.1484 186.227 51.8516 186.961 53.2812 187.328L54.7109 187.695C55.625 187.938 55.9609 188.25 55.9609 188.828C55.9609 189.562 55.2812 190.031 54.1797 190.031C53.0781 190.031 52.4375 189.578 52.2891 188.734H50.9297C51.0703 190.172 52.3125 191.141 54.0938 191.141C55.9922 191.141 57.3281 190.141 57.3281 188.727C57.3281 187.531 56.7344 186.938 55.0938 186.523L53.8359 186.219C52.9141 185.984 52.4844 185.609 52.4844 185.047C52.4844 184.336 53.1406 183.844 54.1328 183.844C55.1328 183.844 55.7656 184.328 55.8594 185.109H57.1562C57.0938 183.734 55.8594 182.734 54.1797 182.734C52.3906 182.734 51.1484 183.727 51.1484 185.117ZM62 183.914C63.2812 183.914 64.1328 184.883 64.1641 186.242H59.75C59.8359 184.891 60.7266 183.914 62 183.914ZM64.1328 188.672C63.9062 189.438 63.1484 189.961 62.1172 189.961C60.6562 189.961 59.7422 188.938 59.7422 187.383V187.305H65.5703V186.789C65.5703 184.328 64.2188 182.734 62.0234 182.734C59.7812 182.734 58.3438 184.445 58.3438 186.969C58.3438 189.523 59.7578 191.141 62.0859 191.141C63.8594 191.141 65.2344 190.094 65.4688 188.672H64.1328ZM73.6953 185.539C73.5234 184.078 72.3125 182.734 70.2812 182.734C68.0391 182.734 66.5469 184.375 66.5469 186.938C66.5469 189.555 68.0469 191.141 70.2969 191.141C72.1406 191.141 73.5 190 73.7109 188.383H72.375C72.1406 189.359 71.4141 189.945 70.3047 189.945C68.8984 189.945 67.9297 188.828 67.9297 186.938C67.9297 185.094 68.8828 183.93 70.2891 183.93C71.4844 183.93 72.1719 184.656 72.3672 185.539H73.6953ZM75.3984 180.914V182.875H74.1875V183.992H75.3984V188.891C75.3984 190.453 75.9766 191.062 77.4688 191.062C77.7891 191.062 78.1641 191.039 78.3281 191V189.859C78.2344 189.875 77.9219 189.898 77.7656 189.898C77.0703 189.898 76.7578 189.562 76.7578 188.82V183.992H78.3359V182.875H76.7578V180.914H75.3984ZM82.8125 183.914C84.0938 183.914 84.9453 184.883 84.9766 186.242H80.5625C80.6484 184.891 81.5391 183.914 82.8125 183.914ZM84.9453 188.672C84.7188 189.438 83.9609 189.961 82.9297 189.961C81.4688 189.961 80.5547 188.938 80.5547 187.383V187.305H86.3828V186.789C86.3828 184.328 85.0312 182.734 82.8359 182.734C80.5938 182.734 79.1562 184.445 79.1562 186.969C79.1562 189.523 80.5703 191.141 82.8984 191.141C84.6719 191.141 86.0469 190.094 86.2812 188.672H84.9453ZM88.1953 180.914V182.875H86.9844V183.992H88.1953V188.891C88.1953 190.453 88.7734 191.062 90.2656 191.062C90.5859 191.062 90.9609 191.039 91.125 191V189.859C91.0312 189.875 90.7188 189.898 90.5625 189.898C89.8672 189.898 89.5547 189.562 89.5547 188.82V183.992H91.1328V182.875H89.5547V180.914H88.1953ZM99.2578 182.875H97.8984V187.648C97.8984 189.031 97.1016 189.938 95.7812 189.938C94.5234 189.938 93.9062 189.227 93.9062 187.906V182.875H92.5469V188.148C92.5469 189.992 93.5859 191.141 95.3594 191.141C96.6094 191.141 97.4531 190.617 97.9375 189.68H97.9688V191H99.2578V182.875ZM101.023 191H102.383V185.938C102.383 184.789 103.07 184.031 104.125 184.031C104.453 184.031 104.742 184.07 104.852 184.109V182.789C104.742 182.773 104.539 182.734 104.305 182.734C103.352 182.734 102.602 183.305 102.336 184.203H102.305V182.875H101.023V191ZM111.922 189.984C110.945 189.984 110.297 189.477 110.297 188.703C110.297 187.938 110.922 187.453 112.016 187.383L114.188 187.25V187.914C114.188 189.086 113.203 189.984 111.922 189.984ZM111.617 191.141C112.711 191.141 113.742 190.531 114.227 189.602H114.258V191H115.547V185.383C115.547 183.766 114.344 182.734 112.438 182.734C110.516 182.734 109.312 183.812 109.219 185.219H110.531C110.703 184.422 111.359 183.93 112.406 183.93C113.531 183.93 114.188 184.523 114.188 185.516V186.195L111.859 186.328C109.984 186.438 108.914 187.312 108.914 188.703C108.914 190.164 110 191.141 111.617 191.141ZM120.352 191.141C121.523 191.141 122.453 190.562 122.977 189.625H123V191H124.297V179.727H122.938V184.195H122.906C122.422 183.305 121.484 182.734 120.32 182.734C118.273 182.734 116.875 184.391 116.875 186.938C116.875 189.484 118.281 191.141 120.352 191.141ZM120.609 183.93C122.008 183.93 122.945 185.125 122.945 186.938C122.945 188.758 122.008 189.945 120.609 189.945C119.172 189.945 118.266 188.781 118.266 186.938C118.266 185.102 119.172 183.93 120.609 183.93ZM126.203 191H127.562V182.875H126.203V191ZM126.883 181.508C127.352 181.508 127.734 181.125 127.734 180.664C127.734 180.195 127.352 179.82 126.883 179.82C126.422 179.82 126.039 180.195 126.039 180.664C126.039 181.125 126.422 181.508 126.883 181.508ZM133.344 182.734C132.164 182.734 131.219 183.336 130.719 184.25H130.688V182.875H129.398V193.711H130.758V189.68H130.789C131.273 190.57 132.211 191.141 133.375 191.141C135.422 191.141 136.82 189.484 136.82 186.938C136.82 184.391 135.414 182.734 133.344 182.734ZM133.078 189.945C131.688 189.945 130.75 188.75 130.75 186.938C130.75 185.133 131.688 183.93 133.078 183.93C134.523 183.93 135.43 185.102 135.43 186.938C135.43 188.781 134.523 189.945 133.078 189.945ZM138.266 191H139.625V182.875H138.266V191ZM138.945 181.508C139.414 181.508 139.797 181.125 139.797 180.664C139.797 180.195 139.414 179.82 138.945 179.82C138.484 179.82 138.102 180.195 138.102 180.664C138.102 181.125 138.484 181.508 138.945 181.508ZM141.32 185.117C141.32 186.227 142.023 186.961 143.453 187.328L144.883 187.695C145.797 187.938 146.133 188.25 146.133 188.828C146.133 189.562 145.453 190.031 144.352 190.031C143.25 190.031 142.609 189.578 142.461 188.734H141.102C141.242 190.172 142.484 191.141 144.266 191.141C146.164 191.141 147.5 190.141 147.5 188.727C147.5 187.531 146.906 186.938 145.266 186.523L144.008 186.219C143.086 185.984 142.656 185.609 142.656 185.047C142.656 184.336 143.312 183.844 144.305 183.844C145.305 183.844 145.938 184.328 146.031 185.109H147.328C147.266 183.734 146.031 182.734 144.352 182.734C142.562 182.734 141.32 183.727 141.32 185.117ZM155.664 185.539C155.492 184.078 154.281 182.734 152.25 182.734C150.008 182.734 148.516 184.375 148.516 186.938C148.516 189.555 150.016 191.141 152.266 191.141C154.109 191.141 155.469 190 155.68 188.383H154.344C154.109 189.359 153.383 189.945 152.273 189.945C150.867 189.945 149.898 188.828 149.898 186.938C149.898 185.094 150.852 183.93 152.258 183.93C153.453 183.93 154.141 184.656 154.336 185.539H155.664ZM157 191H158.359V182.875H157V191ZM157.68 181.508C158.148 181.508 158.531 181.125 158.531 180.664C158.531 180.195 158.148 179.82 157.68 179.82C157.219 179.82 156.836 180.195 156.836 180.664C156.836 181.125 157.219 181.508 157.68 181.508ZM160.195 191H161.555V186.219C161.555 184.844 162.391 183.938 163.672 183.938C164.922 183.938 165.539 184.656 165.539 185.969V191H166.898V185.727C166.898 183.883 165.867 182.734 164.086 182.734C162.828 182.734 161.961 183.297 161.508 184.172H161.477V182.875H160.195V191ZM171.938 189.867C170.539 189.867 169.625 188.727 169.625 186.906C169.625 185.086 170.539 183.93 171.938 183.93C173.352 183.93 174.297 185.117 174.297 186.906C174.297 188.695 173.352 189.867 171.938 189.867ZM171.984 194.062C174.227 194.062 175.656 192.773 175.656 190.836V182.875H174.359V184.242H174.336C173.797 183.297 172.844 182.734 171.695 182.734C169.594 182.734 168.234 184.359 168.234 186.906C168.234 189.43 169.594 191.062 171.664 191.062C172.805 191.062 173.766 190.484 174.266 189.602H174.297V190.883C174.297 192.094 173.445 192.906 172.039 192.906C171.023 192.906 170.219 192.414 169.953 191.672H168.555C168.781 193.055 170.195 194.062 171.984 194.062ZM183.969 183.914C185.25 183.914 186.102 184.883 186.133 186.242H181.719C181.805 184.891 182.695 183.914 183.969 183.914ZM186.102 188.672C185.875 189.438 185.117 189.961 184.086 189.961C182.625 189.961 181.711 188.938 181.711 187.383V187.305H187.539V186.789C187.539 184.328 186.188 182.734 183.992 182.734C181.75 182.734 180.312 184.445 180.312 186.969C180.312 189.523 181.727 191.141 184.055 191.141C185.828 191.141 187.203 190.094 187.438 188.672H186.102ZM188.984 191H190.344V179.727H188.984V191ZM192.25 191H193.609V182.875H192.25V191ZM192.93 181.508C193.398 181.508 193.781 181.125 193.781 180.664C193.781 180.195 193.398 179.82 192.93 179.82C192.469 179.82 192.086 180.195 192.086 180.664C192.086 181.125 192.469 181.508 192.93 181.508ZM195.883 180.914V182.875H194.672V183.992H195.883V188.891C195.883 190.453 196.461 191.062 197.953 191.062C198.273 191.062 198.648 191.039 198.812 191V189.859C198.719 189.875 198.406 189.898 198.25 189.898C197.555 189.898 197.242 189.562 197.242 188.82V183.992H198.82V182.875H197.242V180.914H195.883ZM201.422 191.078C201.922 191.078 202.312 190.688 202.312 190.188C202.312 189.688 201.922 189.297 201.422 189.297C200.922 189.297 200.531 189.688 200.531 190.188C200.531 190.688 200.922 191.078 201.422 191.078ZM213.508 182.875H212.148V187.648C212.148 189.031 211.352 189.938 210.031 189.938C208.773 189.938 208.156 189.227 208.156 187.906V182.875H206.797V188.148C206.797 189.992 207.836 191.141 209.609 191.141C210.859 191.141 211.703 190.617 212.188 189.68H212.219V191H213.508V182.875ZM215.344 191H216.703V182.875H215.344V191ZM216.023 181.508C216.492 181.508 216.875 181.125 216.875 180.664C216.875 180.195 216.492 179.82 216.023 179.82C215.562 179.82 215.18 180.195 215.18 180.664C215.18 181.125 215.562 181.508 216.023 181.508ZM218.398 185.117C218.398 186.227 219.102 186.961 220.531 187.328L221.961 187.695C222.875 187.938 223.211 188.25 223.211 188.828C223.211 189.562 222.531 190.031 221.43 190.031C220.328 190.031 219.688 189.578 219.539 188.734H218.18C218.32 190.172 219.562 191.141 221.344 191.141C223.242 191.141 224.578 190.141 224.578 188.727C224.578 187.531 223.984 186.938 222.344 186.523L221.086 186.219C220.164 185.984 219.734 185.609 219.734 185.047C219.734 184.336 220.391 183.844 221.383 183.844C222.383 183.844 223.016 184.328 223.109 185.109H224.406C224.344 183.734 223.109 182.734 221.43 182.734C219.641 182.734 218.398 183.727 218.398 185.117ZM229.055 182.734C226.969 182.734 225.594 184.383 225.594 186.938C225.594 189.484 226.969 191.141 229.023 191.141C230.172 191.141 231.117 190.57 231.625 189.641H231.656V193.711H233.016V182.875H231.719V184.25H231.688C231.164 183.312 230.234 182.734 229.055 182.734ZM229.297 189.945C227.875 189.945 226.984 188.789 226.984 186.938C226.984 185.078 227.875 183.93 229.297 183.93C230.688 183.93 231.656 185.125 231.656 186.938C231.656 188.75 230.688 189.945 229.297 189.945ZM241.461 182.875H240.102V187.648C240.102 189.031 239.305 189.938 237.984 189.938C236.727 189.938 236.109 189.227 236.109 187.906V182.875H234.75V188.148C234.75 189.992 235.789 191.141 237.562 191.141C238.812 191.141 239.656 190.617 240.141 189.68H240.172V191H241.461V182.875ZM246.484 183.914C247.766 183.914 248.617 184.883 248.648 186.242H244.234C244.32 184.891 245.211 183.914 246.484 183.914ZM248.617 188.672C248.391 189.438 247.633 189.961 246.602 189.961C245.141 189.961 244.227 188.938 244.227 187.383V187.305H250.055V186.789C250.055 184.328 248.703 182.734 246.508 182.734C244.266 182.734 242.828 184.445 242.828 186.969C242.828 189.523 244.242 191.141 246.57 191.141C248.344 191.141 249.719 190.094 249.953 188.672H248.617ZM51.6328 201.875H50.2734V206.648C50.2734 208.031 49.4766 208.938 48.1562 208.938C46.8984 208.938 46.2812 208.227 46.2812 206.906V201.875H44.9219V207.148C44.9219 208.992 45.9609 210.141 47.7344 210.141C48.9844 210.141 49.8281 209.617 50.3125 208.68H50.3438V210H51.6328V201.875ZM53.4688 210H54.8281V198.727H53.4688V210ZM56.7344 210H58.0938V198.727H56.7344V210ZM62.6094 208.984C61.6328 208.984 60.9844 208.477 60.9844 207.703C60.9844 206.938 61.6094 206.453 62.7031 206.383L64.875 206.25V206.914C64.875 208.086 63.8906 208.984 62.6094 208.984ZM62.3047 210.141C63.3984 210.141 64.4297 209.531 64.9141 208.602H64.9453V210H66.2344V204.383C66.2344 202.766 65.0312 201.734 63.125 201.734C61.2031 201.734 60 202.812 59.9062 204.219H61.2188C61.3906 203.422 62.0469 202.93 63.0938 202.93C64.2188 202.93 64.875 203.523 64.875 204.516V205.195L62.5469 205.328C60.6719 205.438 59.6016 206.312 59.6016 207.703C59.6016 209.164 60.6875 210.141 62.3047 210.141ZM67.9609 210H69.3203V204.906C69.3203 203.781 70.1016 202.938 71.1797 202.938C72.1875 202.938 72.8438 203.578 72.8438 204.555V210H74.2031V204.836C74.2031 203.734 74.9609 202.938 76.0391 202.938C77.1094 202.938 77.7266 203.594 77.7266 204.703V210H79.0859V204.391C79.0859 202.781 78.0469 201.734 76.4375 201.734C75.2969 201.734 74.3438 202.312 73.8906 203.281H73.8594C73.5078 202.297 72.6875 201.734 71.5781 201.734C70.4844 201.734 69.6562 202.312 69.2734 203.172H69.2422V201.875H67.9609V210ZM87.5703 204.539C87.3984 203.078 86.1875 201.734 84.1562 201.734C81.9141 201.734 80.4219 203.375 80.4219 205.938C80.4219 208.555 81.9219 210.141 84.1719 210.141C86.0156 210.141 87.375 209 87.5859 207.383H86.25C86.0156 208.359 85.2891 208.945 84.1797 208.945C82.7734 208.945 81.8047 207.828 81.8047 205.938C81.8047 204.094 82.7578 202.93 84.1641 202.93C85.3594 202.93 86.0469 203.656 86.2422 204.539H87.5703ZM92.2031 210.141C94.4453 210.141 95.9609 208.523 95.9609 205.938C95.9609 203.344 94.4453 201.734 92.2031 201.734C89.9531 201.734 88.4375 203.344 88.4375 205.938C88.4375 208.523 89.9531 210.141 92.2031 210.141ZM92.2031 208.945C90.7656 208.945 89.8203 207.852 89.8203 205.938C89.8203 204.023 90.7656 202.93 92.2031 202.93C93.6406 202.93 94.5781 204.023 94.5781 205.938C94.5781 207.852 93.6406 208.945 92.2031 208.945ZM97.3359 210H98.6953V204.938C98.6953 203.789 99.3828 203.031 100.438 203.031C100.766 203.031 101.055 203.07 101.164 203.109V201.789C101.055 201.773 100.852 201.734 100.617 201.734C99.6641 201.734 98.9141 202.305 98.6484 203.203H98.6172V201.875H97.3359V210ZM106.219 201.734C105.039 201.734 104.094 202.336 103.594 203.25H103.562V201.875H102.273V212.711H103.633V208.68H103.664C104.148 209.57 105.086 210.141 106.25 210.141C108.297 210.141 109.695 208.484 109.695 205.938C109.695 203.391 108.289 201.734 106.219 201.734ZM105.953 208.945C104.562 208.945 103.625 207.75 103.625 205.938C103.625 204.133 104.562 202.93 105.953 202.93C107.398 202.93 108.305 204.102 108.305 205.938C108.305 207.781 107.398 208.945 105.953 208.945ZM114.328 202.914C115.609 202.914 116.461 203.883 116.492 205.242H112.078C112.164 203.891 113.055 202.914 114.328 202.914ZM116.461 207.672C116.234 208.438 115.477 208.961 114.445 208.961C112.984 208.961 112.07 207.938 112.07 206.383V206.305H117.898V205.789C117.898 203.328 116.547 201.734 114.352 201.734C112.109 201.734 110.672 203.445 110.672 205.969C110.672 208.523 112.086 210.141 114.414 210.141C116.188 210.141 117.562 209.094 117.797 207.672H116.461ZM119.273 210H120.633V204.938C120.633 203.789 121.32 203.031 122.375 203.031C122.703 203.031 122.992 203.07 123.102 203.109V201.789C122.992 201.773 122.789 201.734 122.555 201.734C121.602 201.734 120.852 202.305 120.586 203.203H120.555V201.875H119.273V210ZM131.438 201.734C130.258 201.734 129.312 202.336 128.812 203.25H128.781V201.875H127.492V212.711H128.852V208.68H128.883C129.367 209.57 130.305 210.141 131.469 210.141C133.516 210.141 134.914 208.484 134.914 205.938C134.914 203.391 133.508 201.734 131.438 201.734ZM131.172 208.945C129.781 208.945 128.844 207.75 128.844 205.938C128.844 204.133 129.781 202.93 131.172 202.93C132.617 202.93 133.523 204.102 133.523 205.938C133.523 207.781 132.617 208.945 131.172 208.945ZM139.656 210.141C141.898 210.141 143.414 208.523 143.414 205.938C143.414 203.344 141.898 201.734 139.656 201.734C137.406 201.734 135.891 203.344 135.891 205.938C135.891 208.523 137.406 210.141 139.656 210.141ZM139.656 208.945C138.219 208.945 137.273 207.852 137.273 205.938C137.273 204.023 138.219 202.93 139.656 202.93C141.094 202.93 142.031 204.023 142.031 205.938C142.031 207.852 141.094 208.945 139.656 208.945ZM144.789 210H146.148V204.938C146.148 203.789 146.836 203.031 147.891 203.031C148.219 203.031 148.508 203.07 148.617 203.109V201.789C148.508 201.773 148.305 201.734 148.07 201.734C147.117 201.734 146.367 202.305 146.102 203.203H146.07V201.875H144.789V210ZM150.164 199.914V201.875H148.953V202.992H150.164V207.891C150.164 209.453 150.742 210.062 152.234 210.062C152.555 210.062 152.93 210.039 153.094 210V208.859C153 208.875 152.688 208.898 152.531 208.898C151.836 208.898 151.523 208.562 151.523 207.82V202.992H153.102V201.875H151.523V199.914H150.164ZM154.992 199.914V201.875H153.781V202.992H154.992V207.891C154.992 209.453 155.57 210.062 157.062 210.062C157.383 210.062 157.758 210.039 157.922 210V208.859C157.828 208.875 157.516 208.898 157.359 208.898C156.664 208.898 156.352 208.562 156.352 207.82V202.992H157.93V201.875H156.352V199.914H154.992ZM159.453 210H160.812V201.875H159.453V210ZM160.133 200.508C160.602 200.508 160.984 200.125 160.984 199.664C160.984 199.195 160.602 198.82 160.133 198.82C159.672 198.82 159.289 199.195 159.289 199.664C159.289 200.125 159.672 200.508 160.133 200.508ZM163.086 199.914V201.875H161.875V202.992H163.086V207.891C163.086 209.453 163.664 210.062 165.156 210.062C165.477 210.062 165.852 210.039 166.016 210V208.859C165.922 208.875 165.609 208.898 165.453 208.898C164.758 208.898 164.445 208.562 164.445 207.82V202.992H166.023V201.875H164.445V199.914H163.086ZM170.609 210.141C172.852 210.141 174.367 208.523 174.367 205.938C174.367 203.344 172.852 201.734 170.609 201.734C168.359 201.734 166.844 203.344 166.844 205.938C166.844 208.523 168.359 210.141 170.609 210.141ZM170.609 208.945C169.172 208.945 168.227 207.852 168.227 205.938C168.227 204.023 169.172 202.93 170.609 202.93C172.047 202.93 172.984 204.023 172.984 205.938C172.984 207.852 172.047 208.945 170.609 208.945ZM175.742 210H177.102V204.938C177.102 203.789 177.789 203.031 178.844 203.031C179.172 203.031 179.461 203.07 179.57 203.109V201.789C179.461 201.773 179.258 201.734 179.023 201.734C178.07 201.734 177.32 202.305 177.055 203.203H177.023V201.875H175.742V210ZM188 210.141C190.078 210.141 191.453 208.492 191.453 205.938C191.453 203.391 190.07 201.734 188.023 201.734C186.875 201.734 185.93 202.305 185.422 203.234H185.391V198.727H184.031V210H185.328V208.625H185.359C185.883 209.562 186.812 210.141 188 210.141ZM187.734 202.93C189.172 202.93 190.062 204.094 190.062 205.938C190.062 207.797 189.172 208.945 187.734 208.945C186.359 208.945 185.383 207.75 185.383 205.938C185.383 204.133 186.359 202.93 187.734 202.93ZM192.906 210H194.266V198.727H192.906V210ZM198.781 208.984C197.805 208.984 197.156 208.477 197.156 207.703C197.156 206.938 197.781 206.453 198.875 206.383L201.047 206.25V206.914C201.047 208.086 200.062 208.984 198.781 208.984ZM198.477 210.141C199.57 210.141 200.602 209.531 201.086 208.602H201.117V210H202.406V204.383C202.406 202.766 201.203 201.734 199.297 201.734C197.375 201.734 196.172 202.812 196.078 204.219H197.391C197.562 203.422 198.219 202.93 199.266 202.93C200.391 202.93 201.047 203.523 201.047 204.516V205.195L198.719 205.328C196.844 205.438 195.773 206.312 195.773 207.703C195.773 209.164 196.859 210.141 198.477 210.141ZM204.133 210H205.492V205.219C205.492 203.844 206.328 202.938 207.609 202.938C208.859 202.938 209.477 203.656 209.477 204.969V210H210.836V204.727C210.836 202.883 209.805 201.734 208.023 201.734C206.766 201.734 205.898 202.297 205.445 203.172H205.414V201.875H204.133V210ZM215.648 210.141C216.82 210.141 217.75 209.562 218.273 208.625H218.297V210H219.594V198.727H218.234V203.195H218.203C217.719 202.305 216.781 201.734 215.617 201.734C213.57 201.734 212.172 203.391 212.172 205.938C212.172 208.484 213.578 210.141 215.648 210.141ZM215.906 202.93C217.305 202.93 218.242 204.125 218.242 205.938C218.242 207.758 217.305 208.945 215.906 208.945C214.469 208.945 213.562 207.781 213.562 205.938C213.562 204.102 214.469 202.93 215.906 202.93ZM221.5 210H222.859V201.875H221.5V210ZM222.18 200.508C222.648 200.508 223.031 200.125 223.031 199.664C223.031 199.195 222.648 198.82 222.18 198.82C221.719 198.82 221.336 199.195 221.336 199.664C221.336 200.125 221.719 200.508 222.18 200.508ZM225.133 199.914V201.875H223.922V202.992H225.133V207.891C225.133 209.453 225.711 210.062 227.203 210.062C227.523 210.062 227.898 210.039 228.062 210V208.859C227.969 208.875 227.656 208.898 227.5 208.898C226.805 208.898 226.492 208.562 226.492 207.82V202.992H228.07V201.875H226.492V199.914H225.133ZM230.672 210.078C231.172 210.078 231.562 209.688 231.562 209.188C231.562 208.688 231.172 208.297 230.672 208.297C230.172 208.297 229.781 208.688 229.781 209.188C229.781 209.688 230.172 210.078 230.672 210.078ZM46.0234 217.727V229H47.4297V224.977H50.0312C52.1484 224.977 53.6562 223.484 53.6562 221.344C53.6562 219.211 52.1641 217.727 50.0469 217.727H46.0234ZM47.4297 218.977H49.6797C51.2969 218.977 52.2109 219.852 52.2109 221.344C52.2109 222.844 51.2891 223.727 49.6797 223.727H47.4297V218.977ZM55.0625 229H56.4219V223.938C56.4219 222.789 57.1094 222.031 58.1641 222.031C58.4922 222.031 58.7812 222.07 58.8906 222.109V220.789C58.7812 220.773 58.5781 220.734 58.3438 220.734C57.3906 220.734 56.6406 221.305 56.375 222.203H56.3438V220.875H55.0625V229ZM62.5234 227.984C61.5469 227.984 60.8984 227.477 60.8984 226.703C60.8984 225.938 61.5234 225.453 62.6172 225.383L64.7891 225.25V225.914C64.7891 227.086 63.8047 227.984 62.5234 227.984ZM62.2188 229.141C63.3125 229.141 64.3438 228.531 64.8281 227.602H64.8594V229H66.1484V223.383C66.1484 221.766 64.9453 220.734 63.0391 220.734C61.1172 220.734 59.9141 221.812 59.8203 223.219H61.1328C61.3047 222.422 61.9609 221.93 63.0078 221.93C64.1328 221.93 64.7891 222.523 64.7891 223.516V224.195L62.4609 224.328C60.5859 224.438 59.5156 225.312 59.5156 226.703C59.5156 228.164 60.6016 229.141 62.2188 229.141ZM71.1328 221.914C72.4141 221.914 73.2656 222.883 73.2969 224.242H68.8828C68.9688 222.891 69.8594 221.914 71.1328 221.914ZM73.2656 226.672C73.0391 227.438 72.2812 227.961 71.25 227.961C69.7891 227.961 68.875 226.938 68.875 225.383V225.305H74.7031V224.789C74.7031 222.328 73.3516 220.734 71.1562 220.734C68.9141 220.734 67.4766 222.445 67.4766 224.969C67.4766 227.523 68.8906 229.141 71.2188 229.141C72.9922 229.141 74.3672 228.094 74.6016 226.672H73.2656ZM75.9375 223.117C75.9375 224.227 76.6406 224.961 78.0703 225.328L79.5 225.695C80.4141 225.938 80.75 226.25 80.75 226.828C80.75 227.562 80.0703 228.031 78.9688 228.031C77.8672 228.031 77.2266 227.578 77.0781 226.734H75.7188C75.8594 228.172 77.1016 229.141 78.8828 229.141C80.7812 229.141 82.1172 228.141 82.1172 226.727C82.1172 225.531 81.5234 224.938 79.8828 224.523L78.625 224.219C77.7031 223.984 77.2734 223.609 77.2734 223.047C77.2734 222.336 77.9297 221.844 78.9219 221.844C79.9219 221.844 80.5547 222.328 80.6484 223.109H81.9453C81.8828 221.734 80.6484 220.734 78.9688 220.734C77.1797 220.734 75.9375 221.727 75.9375 223.117ZM86.7891 221.914C88.0703 221.914 88.9219 222.883 88.9531 224.242H84.5391C84.625 222.891 85.5156 221.914 86.7891 221.914ZM88.9219 226.672C88.6953 227.438 87.9375 227.961 86.9062 227.961C85.4453 227.961 84.5312 226.938 84.5312 225.383V225.305H90.3594V224.789C90.3594 222.328 89.0078 220.734 86.8125 220.734C84.5703 220.734 83.1328 222.445 83.1328 224.969C83.1328 227.523 84.5469 229.141 86.875 229.141C88.6484 229.141 90.0234 228.094 90.2578 226.672H88.9219ZM91.7344 229H93.0938V224.219C93.0938 222.844 93.9297 221.938 95.2109 221.938C96.4609 221.938 97.0781 222.656 97.0781 223.969V229H98.4375V223.727C98.4375 221.883 97.4062 220.734 95.625 220.734C94.3672 220.734 93.5 221.297 93.0469 222.172H93.0156V220.875H91.7344V229ZM100.609 218.914V220.875H99.3984V221.992H100.609V226.891C100.609 228.453 101.188 229.062 102.68 229.062C103 229.062 103.375 229.039 103.539 229V227.859C103.445 227.875 103.133 227.898 102.977 227.898C102.281 227.898 101.969 227.562 101.969 226.82V221.992H103.547V220.875H101.969V218.914H100.609ZM108.352 229H109.711V217.727H108.352V229ZM114.914 229.141C117.156 229.141 118.672 227.523 118.672 224.938C118.672 222.344 117.156 220.734 114.914 220.734C112.664 220.734 111.148 222.344 111.148 224.938C111.148 227.523 112.664 229.141 114.914 229.141ZM114.914 227.945C113.477 227.945 112.531 226.852 112.531 224.938C112.531 223.023 113.477 221.93 114.914 221.93C116.352 221.93 117.289 223.023 117.289 224.938C117.289 226.852 116.352 227.945 114.914 227.945ZM120.047 229H121.406V223.938C121.406 222.789 122.094 222.031 123.148 222.031C123.477 222.031 123.766 222.07 123.875 222.109V220.789C123.766 220.773 123.562 220.734 123.328 220.734C122.375 220.734 121.625 221.305 121.359 222.203H121.328V220.875H120.047V229ZM127.852 221.914C129.133 221.914 129.984 222.883 130.016 224.242H125.602C125.688 222.891 126.578 221.914 127.852 221.914ZM129.984 226.672C129.758 227.438 129 227.961 127.969 227.961C126.508 227.961 125.594 226.938 125.594 225.383V225.305H131.422V224.789C131.422 222.328 130.07 220.734 127.875 220.734C125.633 220.734 124.195 222.445 124.195 224.969C124.195 227.523 125.609 229.141 127.938 229.141C129.711 229.141 131.086 228.094 131.32 226.672H129.984ZM132.797 229H134.156V223.906C134.156 222.781 134.938 221.938 136.016 221.938C137.023 221.938 137.68 222.578 137.68 223.555V229H139.039V223.836C139.039 222.734 139.797 221.938 140.875 221.938C141.945 221.938 142.562 222.594 142.562 223.703V229H143.922V223.391C143.922 221.781 142.883 220.734 141.273 220.734C140.133 220.734 139.18 221.312 138.727 222.281H138.695C138.344 221.297 137.523 220.734 136.414 220.734C135.32 220.734 134.492 221.312 134.109 222.172H134.078V220.875H132.797V229ZM148.938 229H150.297V223.906C150.297 222.781 151.078 221.938 152.156 221.938C153.164 221.938 153.82 222.578 153.82 223.555V229H155.18V223.836C155.18 222.734 155.938 221.938 157.016 221.938C158.086 221.938 158.703 222.594 158.703 223.703V229H160.062V223.391C160.062 221.781 159.023 220.734 157.414 220.734C156.273 220.734 155.32 221.312 154.867 222.281H154.836C154.484 221.297 153.664 220.734 152.555 220.734C151.461 220.734 150.633 221.312 150.25 222.172H150.219V220.875H148.938V229ZM164.477 227.984C163.5 227.984 162.852 227.477 162.852 226.703C162.852 225.938 163.477 225.453 164.57 225.383L166.742 225.25V225.914C166.742 227.086 165.758 227.984 164.477 227.984ZM164.172 229.141C165.266 229.141 166.297 228.531 166.781 227.602H166.812V229H168.102V223.383C168.102 221.766 166.898 220.734 164.992 220.734C163.07 220.734 161.867 221.812 161.773 223.219H163.086C163.258 222.422 163.914 221.93 164.961 221.93C166.086 221.93 166.742 222.523 166.742 223.516V224.195L164.414 224.328C162.539 224.438 161.469 225.312 161.469 226.703C161.469 228.164 162.555 229.141 164.172 229.141ZM173.133 227.867C171.734 227.867 170.82 226.727 170.82 224.906C170.82 223.086 171.734 221.93 173.133 221.93C174.547 221.93 175.492 223.117 175.492 224.906C175.492 226.695 174.547 227.867 173.133 227.867ZM173.18 232.062C175.422 232.062 176.852 230.773 176.852 228.836V220.875H175.555V222.242H175.531C174.992 221.297 174.039 220.734 172.891 220.734C170.789 220.734 169.43 222.359 169.43 224.906C169.43 227.43 170.789 229.062 172.859 229.062C174 229.062 174.961 228.484 175.461 227.602H175.492V228.883C175.492 230.094 174.641 230.906 173.234 230.906C172.219 230.906 171.414 230.414 171.148 229.672H169.75C169.977 231.055 171.391 232.062 173.18 232.062ZM178.625 229H179.984V224.219C179.984 222.844 180.82 221.938 182.102 221.938C183.352 221.938 183.969 222.656 183.969 223.969V229H185.328V223.727C185.328 221.883 184.297 220.734 182.516 220.734C181.258 220.734 180.391 221.297 179.938 222.172H179.906V220.875H178.625V229ZM189.742 227.984C188.766 227.984 188.117 227.477 188.117 226.703C188.117 225.938 188.742 225.453 189.836 225.383L192.008 225.25V225.914C192.008 227.086 191.023 227.984 189.742 227.984ZM189.438 229.141C190.531 229.141 191.562 228.531 192.047 227.602H192.078V229H193.367V223.383C193.367 221.766 192.164 220.734 190.258 220.734C188.336 220.734 187.133 221.812 187.039 223.219H188.352C188.523 222.422 189.18 221.93 190.227 221.93C191.352 221.93 192.008 222.523 192.008 223.516V224.195L189.68 224.328C187.805 224.438 186.734 225.312 186.734 226.703C186.734 228.164 187.82 229.141 189.438 229.141ZM196.023 231.242L197.094 227.266H195.648L194.891 231.242H196.023ZM202.094 229H203.453V221.992H205.109V220.875H203.445V219.977C203.445 219.172 203.797 218.781 204.531 218.781C204.758 218.781 204.984 218.805 205.148 218.828V217.727C204.953 217.695 204.625 217.664 204.32 217.664C202.82 217.664 202.094 218.406 202.094 219.969V220.875H200.961V221.992H202.094V229ZM206.516 229H207.875V223.938C207.875 222.789 208.562 222.031 209.617 222.031C209.945 222.031 210.234 222.07 210.344 222.109V220.789C210.234 220.773 210.031 220.734 209.797 220.734C208.844 220.734 208.094 221.305 207.828 222.203H207.797V220.875H206.516V229ZM211.523 229H212.883V220.875H211.523V229ZM212.203 219.508C212.672 219.508 213.055 219.125 213.055 218.664C213.055 218.195 212.672 217.82 212.203 217.82C211.742 217.82 211.359 218.195 211.359 218.664C211.359 219.125 211.742 219.508 212.203 219.508ZM214.719 229H216.078V224.219C216.078 222.844 216.914 221.938 218.195 221.938C219.445 221.938 220.062 222.656 220.062 223.969V229H221.422V223.727C221.422 221.883 220.391 220.734 218.609 220.734C217.352 220.734 216.484 221.297 216.031 222.172H216V220.875H214.719V229ZM226.461 227.867C225.062 227.867 224.148 226.727 224.148 224.906C224.148 223.086 225.062 221.93 226.461 221.93C227.875 221.93 228.82 223.117 228.82 224.906C228.82 226.695 227.875 227.867 226.461 227.867ZM226.508 232.062C228.75 232.062 230.18 230.773 230.18 228.836V220.875H228.883V222.242H228.859C228.32 221.297 227.367 220.734 226.219 220.734C224.117 220.734 222.758 222.359 222.758 224.906C222.758 227.43 224.117 229.062 226.188 229.062C227.328 229.062 228.289 228.484 228.789 227.602H228.82V228.883C228.82 230.094 227.969 230.906 226.562 230.906C225.547 230.906 224.742 230.414 224.477 229.672H223.078C223.305 231.055 224.719 232.062 226.508 232.062Z" fill="white"/>
<path d="M45.7578 118.862V140H50.1816V133.335H54.1367C58.5898 133.335 61.6807 130.435 61.6807 126.099C61.6807 121.748 58.6924 118.862 54.3564 118.862H45.7578ZM50.1816 122.363H53.1846C55.7188 122.363 57.1836 123.711 57.1836 126.113C57.1836 128.53 55.7041 129.878 53.1699 129.878H50.1816V122.363ZM63.9365 140H68.2139V131.226C68.2139 129.014 69.4443 127.725 71.5537 127.725C72.1689 127.725 72.7549 127.827 73.1064 127.974V124.209C72.8135 124.121 72.3887 124.048 71.8906 124.048C70.0449 124.048 68.7119 125.132 68.1553 127.124H68.0674V124.297H63.9365V140ZM81.3828 127.124C83.2871 127.124 84.5908 128.501 84.6787 130.508H78.0137C78.1602 128.545 79.5078 127.124 81.3828 127.124ZM84.7373 135.195C84.3418 136.396 83.1406 137.173 81.5732 137.173C79.3906 137.173 77.9697 135.635 77.9697 133.394V133.13H88.7949V131.826C88.7949 127.051 85.9092 123.96 81.3389 123.96C76.6953 123.96 73.7656 127.212 73.7656 132.222C73.7656 137.246 76.666 140.337 81.5 140.337C85.3818 140.337 88.1943 138.271 88.6631 135.195H84.7373ZM91.0068 140H95.2842V130.522C95.2842 128.765 96.3828 127.534 98.0088 127.534C99.5908 127.534 100.543 128.53 100.543 130.215V140H104.659V130.464C104.659 128.721 105.729 127.534 107.354 127.534C109.01 127.534 109.918 128.53 109.918 130.347V140H114.195V129.277C114.195 126.113 112.13 124.004 109.054 124.004C106.754 124.004 104.879 125.249 104.176 127.227H104.088C103.561 125.176 101.979 124.004 99.708 124.004C97.5693 124.004 95.8848 125.249 95.2256 127.139H95.1377V124.297H91.0068V140ZM116.979 140H121.256V124.297H116.979V140ZM119.117 122.568C120.406 122.568 121.402 121.587 121.402 120.356C121.402 119.111 120.406 118.145 119.117 118.145C117.828 118.145 116.832 119.111 116.832 120.356C116.832 121.587 117.828 122.568 119.117 122.568ZM138.614 124.297H134.337V133.291C134.337 135.371 133.15 136.733 131.246 136.733C129.356 136.733 128.316 135.62 128.316 133.525V124.297H124.039V134.419C124.039 138.081 126.295 140.293 129.693 140.293C132.066 140.293 133.619 139.15 134.396 137.173H134.483V140H138.614V124.297ZM141.397 140H145.675V130.522C145.675 128.765 146.773 127.534 148.399 127.534C149.981 127.534 150.934 128.53 150.934 130.215V140H155.05V130.464C155.05 128.721 156.119 127.534 157.745 127.534C159.4 127.534 160.309 128.53 160.309 130.347V140H164.586V129.277C164.586 126.113 162.521 124.004 159.444 124.004C157.145 124.004 155.27 125.249 154.566 127.227H154.479C153.951 125.176 152.369 124.004 150.099 124.004C147.96 124.004 146.275 125.249 145.616 127.139H145.528V124.297H141.397V140ZM173.609 118.862V140H178.033V133.335H181.988C186.441 133.335 189.532 130.435 189.532 126.099C189.532 121.748 186.544 118.862 182.208 118.862H173.609ZM178.033 122.363H181.036C183.57 122.363 185.035 123.711 185.035 126.113C185.035 128.53 183.556 129.878 181.021 129.878H178.033V122.363ZM191.891 140H196.168V118.862H191.891V140ZM205.118 137.158C203.668 137.158 202.701 136.426 202.701 135.254C202.701 134.141 203.609 133.423 205.206 133.306L208.517 133.101V134.243C208.517 135.942 206.979 137.158 205.118 137.158ZM203.712 140.249C205.675 140.249 207.623 139.268 208.502 137.598H208.59V140H212.721V129.204C212.721 126.04 210.099 123.96 206.07 123.96C201.91 123.96 199.317 126.055 199.156 129.102H203.067C203.272 127.944 204.283 127.153 205.88 127.153C207.491 127.153 208.517 128.003 208.517 129.468V130.508L204.562 130.742C200.65 130.977 198.453 132.632 198.453 135.488C198.453 138.315 200.724 140.249 203.712 140.249ZM215.489 140H219.767V130.991C219.767 128.955 220.982 127.549 222.901 127.549C224.82 127.549 225.787 128.721 225.787 130.771V140H230.064V129.878C230.064 126.201 228.102 124.004 224.615 124.004C222.198 124.004 220.543 125.146 219.708 127.095H219.62V124.297H215.489V140Z" fill="white"/>
<path d="M116 71.8421H159V96.7368C159 97.337 158.762 97.9127 158.337 98.3371C157.913 98.7615 157.337 99 156.737 99H118.263C117.663 99 117.087 98.7615 116.663 98.3371C116.238 97.9127 116 97.337 116 96.7368V71.8421ZM116 61.6579C116 61.0576 116.238 60.482 116.663 60.0576C117.087 59.6332 117.663 59.3947 118.263 59.3947H156.737C157.337 59.3947 157.913 59.6332 158.337 60.0576C158.762 60.482 159 61.0576 159 61.6579V71.8421H116V61.6579Z" stroke="white" stroke-width="3" stroke-linejoin="round"/>
<path d="M128.447 85.4211L135.237 92.2105L148.816 78.6316" stroke="white" stroke-width="3" stroke-linecap="round" stroke-linejoin="round"/>
<path d="M146.553 56V65.0526M128.447 56V65.0526V56Z" stroke="white" stroke-width="3" stroke-linecap="round"/>
<defs>
<linearGradient id="paint0_linear_14_101" x1="137.5" y1="0" x2="137.5" y2="344" gradientUnits="userSpaceOnUse">
<stop stop-color="#3531A9"/>
<stop offset="1" stop-color="#4303A4"/>
</linearGradient>
</defs>
</svg>
