<svg width="275" height="344" viewBox="0 0 275 344" fill="none" xmlns="http://www.w3.org/2000/svg">
<rect width="275" height="344" rx="20" fill="url(#paint0_linear_14_43)"/>
<path d="M81.2422 301H86.498V275.635H81.2246L74.668 280.188V284.969L81.1367 280.504H81.2422V301ZM91.8945 283.264V283.352H96.8164V283.264C96.8164 280.926 98.627 279.203 101.088 279.203C103.443 279.203 105.113 280.715 105.113 282.613C105.113 284.371 104.322 285.654 101.756 288.221L92.1934 297.432V301H110.633V296.781H99.1895V296.676L105.377 290.717C108.172 287.939 110.281 285.566 110.281 282.402C110.281 278.166 106.607 275.072 101.264 275.072C95.7266 275.072 91.8945 278.465 91.8945 283.264ZM125.152 303.408V301.141C130.672 300.666 133.783 297.889 133.783 293.424C133.783 289.609 131.533 287.271 127.033 286.287L125.152 285.918V279.361C127.033 279.625 128.369 280.996 128.422 282.666H133.309C133.238 278.623 130.074 275.74 125.152 275.301V272.875H122.674V275.283C117.4 275.705 114.307 278.482 114.307 282.789C114.307 286.445 116.574 288.889 120.811 289.873L122.674 290.312V297.168C120.441 296.922 118.93 295.586 118.807 293.758H113.779C113.797 298.064 117.154 300.842 122.674 301.158V303.408H125.152ZM128.809 293.986C128.809 295.85 127.455 297.045 125.152 297.186V290.752C127.648 291.244 128.809 292.281 128.809 293.986ZM119.387 282.35C119.387 280.68 120.758 279.449 122.674 279.344V285.408C120.529 284.951 119.387 283.896 119.387 282.35ZM140.182 306.449L149.182 275.635H144.453L135.436 306.449H140.182ZM150.852 301H155.984V289.627C155.984 287.518 157.303 286.041 159.254 286.041C161.152 286.041 162.295 287.236 162.295 289.258V301H167.234V289.557C167.234 287.465 168.518 286.041 170.469 286.041C172.455 286.041 173.545 287.236 173.545 289.416V301H178.678V288.133C178.678 284.336 176.199 281.805 172.508 281.805C169.748 281.805 167.498 283.299 166.654 285.672H166.549C165.916 283.211 164.018 281.805 161.293 281.805C158.727 281.805 156.705 283.299 155.914 285.566H155.809V282.156H150.852V301ZM190.578 301.404C196.273 301.404 199.912 297.766 199.912 291.561C199.912 285.443 196.221 281.752 190.578 281.752C184.936 281.752 181.244 285.461 181.244 291.561C181.244 297.748 184.883 301.404 190.578 301.404ZM190.578 297.484C188.047 297.484 186.447 295.357 186.447 291.578C186.447 287.834 188.082 285.672 190.578 285.672C193.074 285.672 194.691 287.834 194.691 291.578C194.691 295.357 193.092 297.484 190.578 297.484Z" fill="white"/>
<path d="M25.9375 170.734H20.5V160.727H19.0938V172H25.9375V170.734ZM30.4062 172.141C32.6484 172.141 34.1641 170.523 34.1641 167.938C34.1641 165.344 32.6484 163.734 30.4062 163.734C28.1562 163.734 26.6406 165.344 26.6406 167.938C26.6406 170.523 28.1562 172.141 30.4062 172.141ZM30.4062 170.945C28.9688 170.945 28.0234 169.852 28.0234 167.938C28.0234 166.023 28.9688 164.93 30.4062 164.93C31.8438 164.93 32.7812 166.023 32.7812 167.938C32.7812 169.852 31.8438 170.945 30.4062 170.945ZM35.5391 172H36.8984V166.938C36.8984 165.789 37.5859 165.031 38.6406 165.031C38.9688 165.031 39.2578 165.07 39.3672 165.109V163.789C39.2578 163.773 39.0547 163.734 38.8203 163.734C37.8672 163.734 37.1172 164.305 36.8516 165.203H36.8203V163.875H35.5391V172ZM43.3438 164.914C44.625 164.914 45.4766 165.883 45.5078 167.242H41.0938C41.1797 165.891 42.0703 164.914 43.3438 164.914ZM45.4766 169.672C45.25 170.438 44.4922 170.961 43.4609 170.961C42 170.961 41.0859 169.938 41.0859 168.383V168.305H46.9141V167.789C46.9141 165.328 45.5625 163.734 43.3672 163.734C41.125 163.734 39.6875 165.445 39.6875 167.969C39.6875 170.523 41.1016 172.141 43.4297 172.141C45.2031 172.141 46.5781 171.094 46.8125 169.672H45.4766ZM48.2891 172H49.6484V166.906C49.6484 165.781 50.4297 164.938 51.5078 164.938C52.5156 164.938 53.1719 165.578 53.1719 166.555V172H54.5312V166.836C54.5312 165.734 55.2891 164.938 56.3672 164.938C57.4375 164.938 58.0547 165.594 58.0547 166.703V172H59.4141V166.391C59.4141 164.781 58.375 163.734 56.7656 163.734C55.625 163.734 54.6719 164.312 54.2188 165.281H54.1875C53.8359 164.297 53.0156 163.734 51.9062 163.734C50.8125 163.734 49.9844 164.312 49.6016 165.172H49.5703V163.875H48.2891V172ZM64.5 172H65.8594V163.875H64.5V172ZM65.1797 162.508C65.6484 162.508 66.0312 162.125 66.0312 161.664C66.0312 161.195 65.6484 160.82 65.1797 160.82C64.7188 160.82 64.3359 161.195 64.3359 161.664C64.3359 162.125 64.7188 162.508 65.1797 162.508ZM71.6406 163.734C70.4609 163.734 69.5156 164.336 69.0156 165.25H68.9844V163.875H67.6953V174.711H69.0547V170.68H69.0859C69.5703 171.57 70.5078 172.141 71.6719 172.141C73.7188 172.141 75.1172 170.484 75.1172 167.938C75.1172 165.391 73.7109 163.734 71.6406 163.734ZM71.375 170.945C69.9844 170.945 69.0469 169.75 69.0469 167.938C69.0469 166.133 69.9844 164.93 71.375 164.93C72.8203 164.93 73.7266 166.102 73.7266 167.938C73.7266 169.781 72.8203 170.945 71.375 170.945ZM76.3516 166.117C76.3516 167.227 77.0547 167.961 78.4844 168.328L79.9141 168.695C80.8281 168.938 81.1641 169.25 81.1641 169.828C81.1641 170.562 80.4844 171.031 79.3828 171.031C78.2812 171.031 77.6406 170.578 77.4922 169.734H76.1328C76.2734 171.172 77.5156 172.141 79.2969 172.141C81.1953 172.141 82.5312 171.141 82.5312 169.727C82.5312 168.531 81.9375 167.938 80.2969 167.523L79.0391 167.219C78.1172 166.984 77.6875 166.609 77.6875 166.047C77.6875 165.336 78.3438 164.844 79.3359 164.844C80.3359 164.844 80.9688 165.328 81.0625 166.109H82.3594C82.2969 164.734 81.0625 163.734 79.3828 163.734C77.5938 163.734 76.3516 164.727 76.3516 166.117ZM90.6172 163.875H89.2578V168.648C89.2578 170.031 88.4609 170.938 87.1406 170.938C85.8828 170.938 85.2656 170.227 85.2656 168.906V163.875H83.9062V169.148C83.9062 170.992 84.9453 172.141 86.7188 172.141C87.9688 172.141 88.8125 171.617 89.2969 170.68H89.3281V172H90.6172V163.875ZM92.3828 172H93.7422V166.906C93.7422 165.781 94.5234 164.938 95.6016 164.938C96.6094 164.938 97.2656 165.578 97.2656 166.555V172H98.625V166.836C98.625 165.734 99.3828 164.938 100.461 164.938C101.531 164.938 102.148 165.594 102.148 166.703V172H103.508V166.391C103.508 164.781 102.469 163.734 100.859 163.734C99.7188 163.734 98.7656 164.312 98.3125 165.281H98.2812C97.9297 164.297 97.1094 163.734 96 163.734C94.9062 163.734 94.0781 164.312 93.6953 165.172H93.6641V163.875H92.3828V172ZM111.602 172.141C112.773 172.141 113.703 171.562 114.227 170.625H114.25V172H115.547V160.727H114.188V165.195H114.156C113.672 164.305 112.734 163.734 111.57 163.734C109.523 163.734 108.125 165.391 108.125 167.938C108.125 170.484 109.531 172.141 111.602 172.141ZM111.859 164.93C113.258 164.93 114.195 166.125 114.195 167.938C114.195 169.758 113.258 170.945 111.859 170.945C110.422 170.945 109.516 169.781 109.516 167.938C109.516 166.102 110.422 164.93 111.859 164.93ZM120.75 172.141C122.992 172.141 124.508 170.523 124.508 167.938C124.508 165.344 122.992 163.734 120.75 163.734C118.5 163.734 116.984 165.344 116.984 167.938C116.984 170.523 118.5 172.141 120.75 172.141ZM120.75 170.945C119.312 170.945 118.367 169.852 118.367 167.938C118.367 166.023 119.312 164.93 120.75 164.93C122.188 164.93 123.125 166.023 123.125 167.938C123.125 169.852 122.188 170.945 120.75 170.945ZM125.953 172H127.312V160.727H125.953V172ZM132.516 172.141C134.758 172.141 136.273 170.523 136.273 167.938C136.273 165.344 134.758 163.734 132.516 163.734C130.266 163.734 128.75 165.344 128.75 167.938C128.75 170.523 130.266 172.141 132.516 172.141ZM132.516 170.945C131.078 170.945 130.133 169.852 130.133 167.938C130.133 166.023 131.078 164.93 132.516 164.93C133.953 164.93 134.891 166.023 134.891 167.938C134.891 169.852 133.953 170.945 132.516 170.945ZM137.648 172H139.008V166.938C139.008 165.789 139.695 165.031 140.75 165.031C141.078 165.031 141.367 165.07 141.477 165.109V163.789C141.367 163.773 141.164 163.734 140.93 163.734C139.977 163.734 139.227 164.305 138.961 165.203H138.93V163.875H137.648V172ZM145.727 166.117C145.727 167.227 146.43 167.961 147.859 168.328L149.289 168.695C150.203 168.938 150.539 169.25 150.539 169.828C150.539 170.562 149.859 171.031 148.758 171.031C147.656 171.031 147.016 170.578 146.867 169.734H145.508C145.648 171.172 146.891 172.141 148.672 172.141C150.57 172.141 151.906 171.141 151.906 169.727C151.906 168.531 151.312 167.938 149.672 167.523L148.414 167.219C147.492 166.984 147.062 166.609 147.062 166.047C147.062 165.336 147.719 164.844 148.711 164.844C149.711 164.844 150.344 165.328 150.438 166.109H151.734C151.672 164.734 150.438 163.734 148.758 163.734C146.969 163.734 145.727 164.727 145.727 166.117ZM153.391 172H154.75V163.875H153.391V172ZM154.07 162.508C154.539 162.508 154.922 162.125 154.922 161.664C154.922 161.195 154.539 160.82 154.07 160.82C153.609 160.82 153.227 161.195 153.227 161.664C153.227 162.125 153.609 162.508 154.07 162.508ZM157.023 161.914V163.875H155.812V164.992H157.023V169.891C157.023 171.453 157.602 172.062 159.094 172.062C159.414 172.062 159.789 172.039 159.953 172V170.859C159.859 170.875 159.547 170.898 159.391 170.898C158.695 170.898 158.383 170.562 158.383 169.82V164.992H159.961V163.875H158.383V161.914H157.023ZM167.375 170.984C166.398 170.984 165.75 170.477 165.75 169.703C165.75 168.938 166.375 168.453 167.469 168.383L169.641 168.25V168.914C169.641 170.086 168.656 170.984 167.375 170.984ZM167.07 172.141C168.164 172.141 169.195 171.531 169.68 170.602H169.711V172H171V166.383C171 164.766 169.797 163.734 167.891 163.734C165.969 163.734 164.766 164.812 164.672 166.219H165.984C166.156 165.422 166.812 164.93 167.859 164.93C168.984 164.93 169.641 165.523 169.641 166.516V167.195L167.312 167.328C165.438 167.438 164.367 168.312 164.367 169.703C164.367 171.164 165.453 172.141 167.07 172.141ZM172.727 172H174.086V166.906C174.086 165.781 174.867 164.938 175.945 164.938C176.953 164.938 177.609 165.578 177.609 166.555V172H178.969V166.836C178.969 165.734 179.727 164.938 180.805 164.938C181.875 164.938 182.492 165.594 182.492 166.703V172H183.852V166.391C183.852 164.781 182.812 163.734 181.203 163.734C180.062 163.734 179.109 164.312 178.656 165.281H178.625C178.273 164.297 177.453 163.734 176.344 163.734C175.25 163.734 174.422 164.312 174.039 165.172H174.008V163.875H172.727V172ZM188.844 164.914C190.125 164.914 190.977 165.883 191.008 167.242H186.594C186.68 165.891 187.57 164.914 188.844 164.914ZM190.977 169.672C190.75 170.438 189.992 170.961 188.961 170.961C187.5 170.961 186.586 169.938 186.586 168.383V168.305H192.414V167.789C192.414 165.328 191.062 163.734 188.867 163.734C186.625 163.734 185.188 165.445 185.188 167.969C185.188 170.523 186.602 172.141 188.93 172.141C190.703 172.141 192.078 171.094 192.312 169.672H190.977ZM194.227 161.914V163.875H193.016V164.992H194.227V169.891C194.227 171.453 194.805 172.062 196.297 172.062C196.617 172.062 196.992 172.039 197.156 172V170.859C197.062 170.875 196.75 170.898 196.594 170.898C195.898 170.898 195.586 170.562 195.586 169.82V164.992H197.164V163.875H195.586V161.914H194.227ZM199.547 174.242L200.617 170.266H199.172L198.414 174.242H199.547ZM25.6328 185.539C25.4609 184.078 24.25 182.734 22.2188 182.734C19.9766 182.734 18.4844 184.375 18.4844 186.938C18.4844 189.555 19.9844 191.141 22.2344 191.141C24.0781 191.141 25.4375 190 25.6484 188.383H24.3125C24.0781 189.359 23.3516 189.945 22.2422 189.945C20.8359 189.945 19.8672 188.828 19.8672 186.938C19.8672 185.094 20.8203 183.93 22.2266 183.93C23.4219 183.93 24.1094 184.656 24.3047 185.539H25.6328ZM30.2656 191.141C32.5078 191.141 34.0234 189.523 34.0234 186.938C34.0234 184.344 32.5078 182.734 30.2656 182.734C28.0156 182.734 26.5 184.344 26.5 186.938C26.5 189.523 28.0156 191.141 30.2656 191.141ZM30.2656 189.945C28.8281 189.945 27.8828 188.852 27.8828 186.938C27.8828 185.023 28.8281 183.93 30.2656 183.93C31.7031 183.93 32.6406 185.023 32.6406 186.938C32.6406 188.852 31.7031 189.945 30.2656 189.945ZM35.3984 191H36.7578V186.219C36.7578 184.844 37.5938 183.938 38.875 183.938C40.125 183.938 40.7422 184.656 40.7422 185.969V191H42.1016V185.727C42.1016 183.883 41.0703 182.734 39.2891 182.734C38.0312 182.734 37.1641 183.297 36.7109 184.172H36.6797V182.875H35.3984V191ZM43.6953 185.117C43.6953 186.227 44.3984 186.961 45.8281 187.328L47.2578 187.695C48.1719 187.938 48.5078 188.25 48.5078 188.828C48.5078 189.562 47.8281 190.031 46.7266 190.031C45.625 190.031 44.9844 189.578 44.8359 188.734H43.4766C43.6172 190.172 44.8594 191.141 46.6406 191.141C48.5391 191.141 49.875 190.141 49.875 188.727C49.875 187.531 49.2812 186.938 47.6406 186.523L46.3828 186.219C45.4609 185.984 45.0312 185.609 45.0312 185.047C45.0312 184.336 45.6875 183.844 46.6797 183.844C47.6797 183.844 48.3125 184.328 48.4062 185.109H49.7031C49.6406 183.734 48.4062 182.734 46.7266 182.734C44.9375 182.734 43.6953 183.727 43.6953 185.117ZM54.5469 183.914C55.8281 183.914 56.6797 184.883 56.7109 186.242H52.2969C52.3828 184.891 53.2734 183.914 54.5469 183.914ZM56.6797 188.672C56.4531 189.438 55.6953 189.961 54.6641 189.961C53.2031 189.961 52.2891 188.938 52.2891 187.383V187.305H58.1172V186.789C58.1172 184.328 56.7656 182.734 54.5703 182.734C52.3281 182.734 50.8906 184.445 50.8906 186.969C50.8906 189.523 52.3047 191.141 54.6328 191.141C56.4062 191.141 57.7812 190.094 58.0156 188.672H56.6797ZM66.2422 185.539C66.0703 184.078 64.8594 182.734 62.8281 182.734C60.5859 182.734 59.0938 184.375 59.0938 186.938C59.0938 189.555 60.5938 191.141 62.8438 191.141C64.6875 191.141 66.0469 190 66.2578 188.383H64.9219C64.6875 189.359 63.9609 189.945 62.8516 189.945C61.4453 189.945 60.4766 188.828 60.4766 186.938C60.4766 185.094 61.4297 183.93 62.8359 183.93C64.0312 183.93 64.7188 184.656 64.9141 185.539H66.2422ZM67.9453 180.914V182.875H66.7344V183.992H67.9453V188.891C67.9453 190.453 68.5234 191.062 70.0156 191.062C70.3359 191.062 70.7109 191.039 70.875 191V189.859C70.7812 189.875 70.4688 189.898 70.3125 189.898C69.6172 189.898 69.3047 189.562 69.3047 188.82V183.992H70.8828V182.875H69.3047V180.914H67.9453ZM75.3594 183.914C76.6406 183.914 77.4922 184.883 77.5234 186.242H73.1094C73.1953 184.891 74.0859 183.914 75.3594 183.914ZM77.4922 188.672C77.2656 189.438 76.5078 189.961 75.4766 189.961C74.0156 189.961 73.1016 188.938 73.1016 187.383V187.305H78.9297V186.789C78.9297 184.328 77.5781 182.734 75.3828 182.734C73.1406 182.734 71.7031 184.445 71.7031 186.969C71.7031 189.523 73.1172 191.141 75.4453 191.141C77.2188 191.141 78.5938 190.094 78.8281 188.672H77.4922ZM80.7422 180.914V182.875H79.5312V183.992H80.7422V188.891C80.7422 190.453 81.3203 191.062 82.8125 191.062C83.1328 191.062 83.5078 191.039 83.6719 191V189.859C83.5781 189.875 83.2656 189.898 83.1094 189.898C82.4141 189.898 82.1016 189.562 82.1016 188.82V183.992H83.6797V182.875H82.1016V180.914H80.7422ZM91.8047 182.875H90.4453V187.648C90.4453 189.031 89.6484 189.938 88.3281 189.938C87.0703 189.938 86.4531 189.227 86.4531 187.906V182.875H85.0938V188.148C85.0938 189.992 86.1328 191.141 87.9062 191.141C89.1562 191.141 90 190.617 90.4844 189.68H90.5156V191H91.8047V182.875ZM93.5703 191H94.9297V185.938C94.9297 184.789 95.6172 184.031 96.6719 184.031C97 184.031 97.2891 184.07 97.3984 184.109V182.789C97.2891 182.773 97.0859 182.734 96.8516 182.734C95.8984 182.734 95.1484 183.305 94.8828 184.203H94.8516V182.875H93.5703V191ZM104.469 189.984C103.492 189.984 102.844 189.477 102.844 188.703C102.844 187.938 103.469 187.453 104.562 187.383L106.734 187.25V187.914C106.734 189.086 105.75 189.984 104.469 189.984ZM104.164 191.141C105.258 191.141 106.289 190.531 106.773 189.602H106.805V191H108.094V185.383C108.094 183.766 106.891 182.734 104.984 182.734C103.062 182.734 101.859 183.812 101.766 185.219H103.078C103.25 184.422 103.906 183.93 104.953 183.93C106.078 183.93 106.734 184.523 106.734 185.516V186.195L104.406 186.328C102.531 186.438 101.461 187.312 101.461 188.703C101.461 190.164 102.547 191.141 104.164 191.141ZM112.898 191.141C114.07 191.141 115 190.562 115.523 189.625H115.547V191H116.844V179.727H115.484V184.195H115.453C114.969 183.305 114.031 182.734 112.867 182.734C110.82 182.734 109.422 184.391 109.422 186.938C109.422 189.484 110.828 191.141 112.898 191.141ZM113.156 183.93C114.555 183.93 115.492 185.125 115.492 186.938C115.492 188.758 114.555 189.945 113.156 189.945C111.719 189.945 110.812 188.781 110.812 186.938C110.812 185.102 111.719 183.93 113.156 183.93ZM118.75 191H120.109V182.875H118.75V191ZM119.43 181.508C119.898 181.508 120.281 181.125 120.281 180.664C120.281 180.195 119.898 179.82 119.43 179.82C118.969 179.82 118.586 180.195 118.586 180.664C118.586 181.125 118.969 181.508 119.43 181.508ZM125.891 182.734C124.711 182.734 123.766 183.336 123.266 184.25H123.234V182.875H121.945V193.711H123.305V189.68H123.336C123.82 190.57 124.758 191.141 125.922 191.141C127.969 191.141 129.367 189.484 129.367 186.938C129.367 184.391 127.961 182.734 125.891 182.734ZM125.625 189.945C124.234 189.945 123.297 188.75 123.297 186.938C123.297 185.133 124.234 183.93 125.625 183.93C127.07 183.93 127.977 185.102 127.977 186.938C127.977 188.781 127.07 189.945 125.625 189.945ZM130.812 191H132.172V182.875H130.812V191ZM131.492 181.508C131.961 181.508 132.344 181.125 132.344 180.664C132.344 180.195 131.961 179.82 131.492 179.82C131.031 179.82 130.648 180.195 130.648 180.664C130.648 181.125 131.031 181.508 131.492 181.508ZM133.867 185.117C133.867 186.227 134.57 186.961 136 187.328L137.43 187.695C138.344 187.938 138.68 188.25 138.68 188.828C138.68 189.562 138 190.031 136.898 190.031C135.797 190.031 135.156 189.578 135.008 188.734H133.648C133.789 190.172 135.031 191.141 136.812 191.141C138.711 191.141 140.047 190.141 140.047 188.727C140.047 187.531 139.453 186.938 137.812 186.523L136.555 186.219C135.633 185.984 135.203 185.609 135.203 185.047C135.203 184.336 135.859 183.844 136.852 183.844C137.852 183.844 138.484 184.328 138.578 185.109H139.875C139.812 183.734 138.578 182.734 136.898 182.734C135.109 182.734 133.867 183.727 133.867 185.117ZM148.211 185.539C148.039 184.078 146.828 182.734 144.797 182.734C142.555 182.734 141.062 184.375 141.062 186.938C141.062 189.555 142.562 191.141 144.812 191.141C146.656 191.141 148.016 190 148.227 188.383H146.891C146.656 189.359 145.93 189.945 144.82 189.945C143.414 189.945 142.445 188.828 142.445 186.938C142.445 185.094 143.398 183.93 144.805 183.93C146 183.93 146.688 184.656 146.883 185.539H148.211ZM149.547 191H150.906V182.875H149.547V191ZM150.227 181.508C150.695 181.508 151.078 181.125 151.078 180.664C151.078 180.195 150.695 179.82 150.227 179.82C149.766 179.82 149.383 180.195 149.383 180.664C149.383 181.125 149.766 181.508 150.227 181.508ZM152.742 191H154.102V186.219C154.102 184.844 154.938 183.938 156.219 183.938C157.469 183.938 158.086 184.656 158.086 185.969V191H159.445V185.727C159.445 183.883 158.414 182.734 156.633 182.734C155.375 182.734 154.508 183.297 154.055 184.172H154.023V182.875H152.742V191ZM164.484 189.867C163.086 189.867 162.172 188.727 162.172 186.906C162.172 185.086 163.086 183.93 164.484 183.93C165.898 183.93 166.844 185.117 166.844 186.906C166.844 188.695 165.898 189.867 164.484 189.867ZM164.531 194.062C166.773 194.062 168.203 192.773 168.203 190.836V182.875H166.906V184.242H166.883C166.344 183.297 165.391 182.734 164.242 182.734C162.141 182.734 160.781 184.359 160.781 186.906C160.781 189.43 162.141 191.062 164.211 191.062C165.352 191.062 166.312 190.484 166.812 189.602H166.844V190.883C166.844 192.094 165.992 192.906 164.586 192.906C163.57 192.906 162.766 192.414 162.5 191.672H161.102C161.328 193.055 162.742 194.062 164.531 194.062ZM176.516 183.914C177.797 183.914 178.648 184.883 178.68 186.242H174.266C174.352 184.891 175.242 183.914 176.516 183.914ZM178.648 188.672C178.422 189.438 177.664 189.961 176.633 189.961C175.172 189.961 174.258 188.938 174.258 187.383V187.305H180.086V186.789C180.086 184.328 178.734 182.734 176.539 182.734C174.297 182.734 172.859 184.445 172.859 186.969C172.859 189.523 174.273 191.141 176.602 191.141C178.375 191.141 179.75 190.094 179.984 188.672H178.648ZM181.531 191H182.891V179.727H181.531V191ZM184.797 191H186.156V182.875H184.797V191ZM185.477 181.508C185.945 181.508 186.328 181.125 186.328 180.664C186.328 180.195 185.945 179.82 185.477 179.82C185.016 179.82 184.633 180.195 184.633 180.664C184.633 181.125 185.016 181.508 185.477 181.508ZM188.43 180.914V182.875H187.219V183.992H188.43V188.891C188.43 190.453 189.008 191.062 190.5 191.062C190.82 191.062 191.195 191.039 191.359 191V189.859C191.266 189.875 190.953 189.898 190.797 189.898C190.102 189.898 189.789 189.562 189.789 188.82V183.992H191.367V182.875H189.789V180.914H188.43ZM193.969 191.078C194.469 191.078 194.859 190.688 194.859 190.188C194.859 189.688 194.469 189.297 193.969 189.297C193.469 189.297 193.078 189.688 193.078 190.188C193.078 190.688 193.469 191.078 193.969 191.078ZM206.055 182.875H204.695V187.648C204.695 189.031 203.898 189.938 202.578 189.938C201.32 189.938 200.703 189.227 200.703 187.906V182.875H199.344V188.148C199.344 189.992 200.383 191.141 202.156 191.141C203.406 191.141 204.25 190.617 204.734 189.68H204.766V191H206.055V182.875ZM207.891 191H209.25V182.875H207.891V191ZM208.57 181.508C209.039 181.508 209.422 181.125 209.422 180.664C209.422 180.195 209.039 179.82 208.57 179.82C208.109 179.82 207.727 180.195 207.727 180.664C207.727 181.125 208.109 181.508 208.57 181.508ZM210.945 185.117C210.945 186.227 211.648 186.961 213.078 187.328L214.508 187.695C215.422 187.938 215.758 188.25 215.758 188.828C215.758 189.562 215.078 190.031 213.977 190.031C212.875 190.031 212.234 189.578 212.086 188.734H210.727C210.867 190.172 212.109 191.141 213.891 191.141C215.789 191.141 217.125 190.141 217.125 188.727C217.125 187.531 216.531 186.938 214.891 186.523L213.633 186.219C212.711 185.984 212.281 185.609 212.281 185.047C212.281 184.336 212.938 183.844 213.93 183.844C214.93 183.844 215.562 184.328 215.656 185.109H216.953C216.891 183.734 215.656 182.734 213.977 182.734C212.188 182.734 210.945 183.727 210.945 185.117ZM221.602 182.734C219.516 182.734 218.141 184.383 218.141 186.938C218.141 189.484 219.516 191.141 221.57 191.141C222.719 191.141 223.664 190.57 224.172 189.641H224.203V193.711H225.562V182.875H224.266V184.25H224.234C223.711 183.312 222.781 182.734 221.602 182.734ZM221.844 189.945C220.422 189.945 219.531 188.789 219.531 186.938C219.531 185.078 220.422 183.93 221.844 183.93C223.234 183.93 224.203 185.125 224.203 186.938C224.203 188.75 223.234 189.945 221.844 189.945ZM234.008 182.875H232.648V187.648C232.648 189.031 231.852 189.938 230.531 189.938C229.273 189.938 228.656 189.227 228.656 187.906V182.875H227.297V188.148C227.297 189.992 228.336 191.141 230.109 191.141C231.359 191.141 232.203 190.617 232.688 189.68H232.719V191H234.008V182.875ZM239.031 183.914C240.312 183.914 241.164 184.883 241.195 186.242H236.781C236.867 184.891 237.758 183.914 239.031 183.914ZM241.164 188.672C240.938 189.438 240.18 189.961 239.148 189.961C237.688 189.961 236.773 188.938 236.773 187.383V187.305H242.602V186.789C242.602 184.328 241.25 182.734 239.055 182.734C236.812 182.734 235.375 184.445 235.375 186.969C235.375 189.523 236.789 191.141 239.117 191.141C240.891 191.141 242.266 190.094 242.5 188.672H241.164ZM25.5547 201.875H24.1953V206.648C24.1953 208.031 23.3984 208.938 22.0781 208.938C20.8203 208.938 20.2031 208.227 20.2031 206.906V201.875H18.8438V207.148C18.8438 208.992 19.8828 210.141 21.6562 210.141C22.9062 210.141 23.75 209.617 24.2344 208.68H24.2656V210H25.5547V201.875ZM27.3906 210H28.75V198.727H27.3906V210ZM30.6562 210H32.0156V198.727H30.6562V210ZM36.5312 208.984C35.5547 208.984 34.9062 208.477 34.9062 207.703C34.9062 206.938 35.5312 206.453 36.625 206.383L38.7969 206.25V206.914C38.7969 208.086 37.8125 208.984 36.5312 208.984ZM36.2266 210.141C37.3203 210.141 38.3516 209.531 38.8359 208.602H38.8672V210H40.1562V204.383C40.1562 202.766 38.9531 201.734 37.0469 201.734C35.125 201.734 33.9219 202.812 33.8281 204.219H35.1406C35.3125 203.422 35.9688 202.93 37.0156 202.93C38.1406 202.93 38.7969 203.523 38.7969 204.516V205.195L36.4688 205.328C34.5938 205.438 33.5234 206.312 33.5234 207.703C33.5234 209.164 34.6094 210.141 36.2266 210.141ZM41.8828 210H43.2422V204.906C43.2422 203.781 44.0234 202.938 45.1016 202.938C46.1094 202.938 46.7656 203.578 46.7656 204.555V210H48.125V204.836C48.125 203.734 48.8828 202.938 49.9609 202.938C51.0312 202.938 51.6484 203.594 51.6484 204.703V210H53.0078V204.391C53.0078 202.781 51.9688 201.734 50.3594 201.734C49.2188 201.734 48.2656 202.312 47.8125 203.281H47.7812C47.4297 202.297 46.6094 201.734 45.5 201.734C44.4062 201.734 43.5781 202.312 43.1953 203.172H43.1641V201.875H41.8828V210ZM61.4922 204.539C61.3203 203.078 60.1094 201.734 58.0781 201.734C55.8359 201.734 54.3438 203.375 54.3438 205.938C54.3438 208.555 55.8438 210.141 58.0938 210.141C59.9375 210.141 61.2969 209 61.5078 207.383H60.1719C59.9375 208.359 59.2109 208.945 58.1016 208.945C56.6953 208.945 55.7266 207.828 55.7266 205.938C55.7266 204.094 56.6797 202.93 58.0859 202.93C59.2812 202.93 59.9688 203.656 60.1641 204.539H61.4922ZM66.125 210.141C68.3672 210.141 69.8828 208.523 69.8828 205.938C69.8828 203.344 68.3672 201.734 66.125 201.734C63.875 201.734 62.3594 203.344 62.3594 205.938C62.3594 208.523 63.875 210.141 66.125 210.141ZM66.125 208.945C64.6875 208.945 63.7422 207.852 63.7422 205.938C63.7422 204.023 64.6875 202.93 66.125 202.93C67.5625 202.93 68.5 204.023 68.5 205.938C68.5 207.852 67.5625 208.945 66.125 208.945ZM71.2578 210H72.6172V204.938C72.6172 203.789 73.3047 203.031 74.3594 203.031C74.6875 203.031 74.9766 203.07 75.0859 203.109V201.789C74.9766 201.773 74.7734 201.734 74.5391 201.734C73.5859 201.734 72.8359 202.305 72.5703 203.203H72.5391V201.875H71.2578V210ZM80.1406 201.734C78.9609 201.734 78.0156 202.336 77.5156 203.25H77.4844V201.875H76.1953V212.711H77.5547V208.68H77.5859C78.0703 209.57 79.0078 210.141 80.1719 210.141C82.2188 210.141 83.6172 208.484 83.6172 205.938C83.6172 203.391 82.2109 201.734 80.1406 201.734ZM79.875 208.945C78.4844 208.945 77.5469 207.75 77.5469 205.938C77.5469 204.133 78.4844 202.93 79.875 202.93C81.3203 202.93 82.2266 204.102 82.2266 205.938C82.2266 207.781 81.3203 208.945 79.875 208.945ZM88.25 202.914C89.5312 202.914 90.3828 203.883 90.4141 205.242H86C86.0859 203.891 86.9766 202.914 88.25 202.914ZM90.3828 207.672C90.1562 208.438 89.3984 208.961 88.3672 208.961C86.9062 208.961 85.9922 207.938 85.9922 206.383V206.305H91.8203V205.789C91.8203 203.328 90.4688 201.734 88.2734 201.734C86.0312 201.734 84.5938 203.445 84.5938 205.969C84.5938 208.523 86.0078 210.141 88.3359 210.141C90.1094 210.141 91.4844 209.094 91.7188 207.672H90.3828ZM93.1953 210H94.5547V204.938C94.5547 203.789 95.2422 203.031 96.2969 203.031C96.625 203.031 96.9141 203.07 97.0234 203.109V201.789C96.9141 201.773 96.7109 201.734 96.4766 201.734C95.5234 201.734 94.7734 202.305 94.5078 203.203H94.4766V201.875H93.1953V210ZM105.359 201.734C104.18 201.734 103.234 202.336 102.734 203.25H102.703V201.875H101.414V212.711H102.773V208.68H102.805C103.289 209.57 104.227 210.141 105.391 210.141C107.438 210.141 108.836 208.484 108.836 205.938C108.836 203.391 107.43 201.734 105.359 201.734ZM105.094 208.945C103.703 208.945 102.766 207.75 102.766 205.938C102.766 204.133 103.703 202.93 105.094 202.93C106.539 202.93 107.445 204.102 107.445 205.938C107.445 207.781 106.539 208.945 105.094 208.945ZM113.578 210.141C115.82 210.141 117.336 208.523 117.336 205.938C117.336 203.344 115.82 201.734 113.578 201.734C111.328 201.734 109.812 203.344 109.812 205.938C109.812 208.523 111.328 210.141 113.578 210.141ZM113.578 208.945C112.141 208.945 111.195 207.852 111.195 205.938C111.195 204.023 112.141 202.93 113.578 202.93C115.016 202.93 115.953 204.023 115.953 205.938C115.953 207.852 115.016 208.945 113.578 208.945ZM118.711 210H120.07V204.938C120.07 203.789 120.758 203.031 121.812 203.031C122.141 203.031 122.43 203.07 122.539 203.109V201.789C122.43 201.773 122.227 201.734 121.992 201.734C121.039 201.734 120.289 202.305 120.023 203.203H119.992V201.875H118.711V210ZM124.086 199.914V201.875H122.875V202.992H124.086V207.891C124.086 209.453 124.664 210.062 126.156 210.062C126.477 210.062 126.852 210.039 127.016 210V208.859C126.922 208.875 126.609 208.898 126.453 208.898C125.758 208.898 125.445 208.562 125.445 207.82V202.992H127.023V201.875H125.445V199.914H124.086ZM128.914 199.914V201.875H127.703V202.992H128.914V207.891C128.914 209.453 129.492 210.062 130.984 210.062C131.305 210.062 131.68 210.039 131.844 210V208.859C131.75 208.875 131.438 208.898 131.281 208.898C130.586 208.898 130.273 208.562 130.273 207.82V202.992H131.852V201.875H130.273V199.914H128.914ZM133.375 210H134.734V201.875H133.375V210ZM134.055 200.508C134.523 200.508 134.906 200.125 134.906 199.664C134.906 199.195 134.523 198.82 134.055 198.82C133.594 198.82 133.211 199.195 133.211 199.664C133.211 200.125 133.594 200.508 134.055 200.508ZM137.008 199.914V201.875H135.797V202.992H137.008V207.891C137.008 209.453 137.586 210.062 139.078 210.062C139.398 210.062 139.773 210.039 139.938 210V208.859C139.844 208.875 139.531 208.898 139.375 208.898C138.68 208.898 138.367 208.562 138.367 207.82V202.992H139.945V201.875H138.367V199.914H137.008ZM144.531 210.141C146.773 210.141 148.289 208.523 148.289 205.938C148.289 203.344 146.773 201.734 144.531 201.734C142.281 201.734 140.766 203.344 140.766 205.938C140.766 208.523 142.281 210.141 144.531 210.141ZM144.531 208.945C143.094 208.945 142.148 207.852 142.148 205.938C142.148 204.023 143.094 202.93 144.531 202.93C145.969 202.93 146.906 204.023 146.906 205.938C146.906 207.852 145.969 208.945 144.531 208.945ZM149.664 210H151.023V204.938C151.023 203.789 151.711 203.031 152.766 203.031C153.094 203.031 153.383 203.07 153.492 203.109V201.789C153.383 201.773 153.18 201.734 152.945 201.734C151.992 201.734 151.242 202.305 150.977 203.203H150.945V201.875H149.664V210ZM161.922 210.141C164 210.141 165.375 208.492 165.375 205.938C165.375 203.391 163.992 201.734 161.945 201.734C160.797 201.734 159.852 202.305 159.344 203.234H159.312V198.727H157.953V210H159.25V208.625H159.281C159.805 209.562 160.734 210.141 161.922 210.141ZM161.656 202.93C163.094 202.93 163.984 204.094 163.984 205.938C163.984 207.797 163.094 208.945 161.656 208.945C160.281 208.945 159.305 207.75 159.305 205.938C159.305 204.133 160.281 202.93 161.656 202.93ZM166.828 210H168.188V198.727H166.828V210ZM172.703 208.984C171.727 208.984 171.078 208.477 171.078 207.703C171.078 206.938 171.703 206.453 172.797 206.383L174.969 206.25V206.914C174.969 208.086 173.984 208.984 172.703 208.984ZM172.398 210.141C173.492 210.141 174.523 209.531 175.008 208.602H175.039V210H176.328V204.383C176.328 202.766 175.125 201.734 173.219 201.734C171.297 201.734 170.094 202.812 170 204.219H171.312C171.484 203.422 172.141 202.93 173.188 202.93C174.312 202.93 174.969 203.523 174.969 204.516V205.195L172.641 205.328C170.766 205.438 169.695 206.312 169.695 207.703C169.695 209.164 170.781 210.141 172.398 210.141ZM178.055 210H179.414V205.219C179.414 203.844 180.25 202.938 181.531 202.938C182.781 202.938 183.398 203.656 183.398 204.969V210H184.758V204.727C184.758 202.883 183.727 201.734 181.945 201.734C180.688 201.734 179.82 202.297 179.367 203.172H179.336V201.875H178.055V210ZM189.57 210.141C190.742 210.141 191.672 209.562 192.195 208.625H192.219V210H193.516V198.727H192.156V203.195H192.125C191.641 202.305 190.703 201.734 189.539 201.734C187.492 201.734 186.094 203.391 186.094 205.938C186.094 208.484 187.5 210.141 189.57 210.141ZM189.828 202.93C191.227 202.93 192.164 204.125 192.164 205.938C192.164 207.758 191.227 208.945 189.828 208.945C188.391 208.945 187.484 207.781 187.484 205.938C187.484 204.102 188.391 202.93 189.828 202.93ZM195.422 210H196.781V201.875H195.422V210ZM196.102 200.508C196.57 200.508 196.953 200.125 196.953 199.664C196.953 199.195 196.57 198.82 196.102 198.82C195.641 198.82 195.258 199.195 195.258 199.664C195.258 200.125 195.641 200.508 196.102 200.508ZM199.055 199.914V201.875H197.844V202.992H199.055V207.891C199.055 209.453 199.633 210.062 201.125 210.062C201.445 210.062 201.82 210.039 201.984 210V208.859C201.891 208.875 201.578 208.898 201.422 208.898C200.727 208.898 200.414 208.562 200.414 207.82V202.992H201.992V201.875H200.414V199.914H199.055ZM204.594 210.078C205.094 210.078 205.484 209.688 205.484 209.188C205.484 208.688 205.094 208.297 204.594 208.297C204.094 208.297 203.703 208.688 203.703 209.188C203.703 209.688 204.094 210.078 204.594 210.078ZM19.0938 217.727V229H20.5V224.977H23.1016C25.2188 224.977 26.7266 223.484 26.7266 221.344C26.7266 219.211 25.2344 217.727 23.1172 217.727H19.0938ZM20.5 218.977H22.75C24.3672 218.977 25.2812 219.852 25.2812 221.344C25.2812 222.844 24.3594 223.727 22.75 223.727H20.5V218.977ZM28.1328 229H29.4922V223.938C29.4922 222.789 30.1797 222.031 31.2344 222.031C31.5625 222.031 31.8516 222.07 31.9609 222.109V220.789C31.8516 220.773 31.6484 220.734 31.4141 220.734C30.4609 220.734 29.7109 221.305 29.4453 222.203H29.4141V220.875H28.1328V229ZM35.5938 227.984C34.6172 227.984 33.9688 227.477 33.9688 226.703C33.9688 225.938 34.5938 225.453 35.6875 225.383L37.8594 225.25V225.914C37.8594 227.086 36.875 227.984 35.5938 227.984ZM35.2891 229.141C36.3828 229.141 37.4141 228.531 37.8984 227.602H37.9297V229H39.2188V223.383C39.2188 221.766 38.0156 220.734 36.1094 220.734C34.1875 220.734 32.9844 221.812 32.8906 223.219H34.2031C34.375 222.422 35.0312 221.93 36.0781 221.93C37.2031 221.93 37.8594 222.523 37.8594 223.516V224.195L35.5312 224.328C33.6562 224.438 32.5859 225.312 32.5859 226.703C32.5859 228.164 33.6719 229.141 35.2891 229.141ZM44.2031 221.914C45.4844 221.914 46.3359 222.883 46.3672 224.242H41.9531C42.0391 222.891 42.9297 221.914 44.2031 221.914ZM46.3359 226.672C46.1094 227.438 45.3516 227.961 44.3203 227.961C42.8594 227.961 41.9453 226.938 41.9453 225.383V225.305H47.7734V224.789C47.7734 222.328 46.4219 220.734 44.2266 220.734C41.9844 220.734 40.5469 222.445 40.5469 224.969C40.5469 227.523 41.9609 229.141 44.2891 229.141C46.0625 229.141 47.4375 228.094 47.6719 226.672H46.3359ZM49.0078 223.117C49.0078 224.227 49.7109 224.961 51.1406 225.328L52.5703 225.695C53.4844 225.938 53.8203 226.25 53.8203 226.828C53.8203 227.562 53.1406 228.031 52.0391 228.031C50.9375 228.031 50.2969 227.578 50.1484 226.734H48.7891C48.9297 228.172 50.1719 229.141 51.9531 229.141C53.8516 229.141 55.1875 228.141 55.1875 226.727C55.1875 225.531 54.5938 224.938 52.9531 224.523L51.6953 224.219C50.7734 223.984 50.3438 223.609 50.3438 223.047C50.3438 222.336 51 221.844 51.9922 221.844C52.9922 221.844 53.625 222.328 53.7188 223.109H55.0156C54.9531 221.734 53.7188 220.734 52.0391 220.734C50.25 220.734 49.0078 221.727 49.0078 223.117ZM59.8594 221.914C61.1406 221.914 61.9922 222.883 62.0234 224.242H57.6094C57.6953 222.891 58.5859 221.914 59.8594 221.914ZM61.9922 226.672C61.7656 227.438 61.0078 227.961 59.9766 227.961C58.5156 227.961 57.6016 226.938 57.6016 225.383V225.305H63.4297V224.789C63.4297 222.328 62.0781 220.734 59.8828 220.734C57.6406 220.734 56.2031 222.445 56.2031 224.969C56.2031 227.523 57.6172 229.141 59.9453 229.141C61.7188 229.141 63.0938 228.094 63.3281 226.672H61.9922ZM64.8047 229H66.1641V224.219C66.1641 222.844 67 221.938 68.2812 221.938C69.5312 221.938 70.1484 222.656 70.1484 223.969V229H71.5078V223.727C71.5078 221.883 70.4766 220.734 68.6953 220.734C67.4375 220.734 66.5703 221.297 66.1172 222.172H66.0859V220.875H64.8047V229ZM73.6797 218.914V220.875H72.4688V221.992H73.6797V226.891C73.6797 228.453 74.2578 229.062 75.75 229.062C76.0703 229.062 76.4453 229.039 76.6094 229V227.859C76.5156 227.875 76.2031 227.898 76.0469 227.898C75.3516 227.898 75.0391 227.562 75.0391 226.82V221.992H76.6172V220.875H75.0391V218.914H73.6797ZM81.4219 229H82.7812V217.727H81.4219V229ZM87.9844 229.141C90.2266 229.141 91.7422 227.523 91.7422 224.938C91.7422 222.344 90.2266 220.734 87.9844 220.734C85.7344 220.734 84.2188 222.344 84.2188 224.938C84.2188 227.523 85.7344 229.141 87.9844 229.141ZM87.9844 227.945C86.5469 227.945 85.6016 226.852 85.6016 224.938C85.6016 223.023 86.5469 221.93 87.9844 221.93C89.4219 221.93 90.3594 223.023 90.3594 224.938C90.3594 226.852 89.4219 227.945 87.9844 227.945ZM93.1172 229H94.4766V223.938C94.4766 222.789 95.1641 222.031 96.2188 222.031C96.5469 222.031 96.8359 222.07 96.9453 222.109V220.789C96.8359 220.773 96.6328 220.734 96.3984 220.734C95.4453 220.734 94.6953 221.305 94.4297 222.203H94.3984V220.875H93.1172V229ZM100.922 221.914C102.203 221.914 103.055 222.883 103.086 224.242H98.6719C98.7578 222.891 99.6484 221.914 100.922 221.914ZM103.055 226.672C102.828 227.438 102.07 227.961 101.039 227.961C99.5781 227.961 98.6641 226.938 98.6641 225.383V225.305H104.492V224.789C104.492 222.328 103.141 220.734 100.945 220.734C98.7031 220.734 97.2656 222.445 97.2656 224.969C97.2656 227.523 98.6797 229.141 101.008 229.141C102.781 229.141 104.156 228.094 104.391 226.672H103.055ZM105.867 229H107.227V223.906C107.227 222.781 108.008 221.938 109.086 221.938C110.094 221.938 110.75 222.578 110.75 223.555V229H112.109V223.836C112.109 222.734 112.867 221.938 113.945 221.938C115.016 221.938 115.633 222.594 115.633 223.703V229H116.992V223.391C116.992 221.781 115.953 220.734 114.344 220.734C113.203 220.734 112.25 221.312 111.797 222.281H111.766C111.414 221.297 110.594 220.734 109.484 220.734C108.391 220.734 107.562 221.312 107.18 222.172H107.148V220.875H105.867V229ZM122.008 229H123.367V223.906C123.367 222.781 124.148 221.938 125.227 221.938C126.234 221.938 126.891 222.578 126.891 223.555V229H128.25V223.836C128.25 222.734 129.008 221.938 130.086 221.938C131.156 221.938 131.773 222.594 131.773 223.703V229H133.133V223.391C133.133 221.781 132.094 220.734 130.484 220.734C129.344 220.734 128.391 221.312 127.938 222.281H127.906C127.555 221.297 126.734 220.734 125.625 220.734C124.531 220.734 123.703 221.312 123.32 222.172H123.289V220.875H122.008V229ZM137.547 227.984C136.57 227.984 135.922 227.477 135.922 226.703C135.922 225.938 136.547 225.453 137.641 225.383L139.812 225.25V225.914C139.812 227.086 138.828 227.984 137.547 227.984ZM137.242 229.141C138.336 229.141 139.367 228.531 139.852 227.602H139.883V229H141.172V223.383C141.172 221.766 139.969 220.734 138.062 220.734C136.141 220.734 134.938 221.812 134.844 223.219H136.156C136.328 222.422 136.984 221.93 138.031 221.93C139.156 221.93 139.812 222.523 139.812 223.516V224.195L137.484 224.328C135.609 224.438 134.539 225.312 134.539 226.703C134.539 228.164 135.625 229.141 137.242 229.141ZM146.203 227.867C144.805 227.867 143.891 226.727 143.891 224.906C143.891 223.086 144.805 221.93 146.203 221.93C147.617 221.93 148.562 223.117 148.562 224.906C148.562 226.695 147.617 227.867 146.203 227.867ZM146.25 232.062C148.492 232.062 149.922 230.773 149.922 228.836V220.875H148.625V222.242H148.602C148.062 221.297 147.109 220.734 145.961 220.734C143.859 220.734 142.5 222.359 142.5 224.906C142.5 227.43 143.859 229.062 145.93 229.062C147.07 229.062 148.031 228.484 148.531 227.602H148.562V228.883C148.562 230.094 147.711 230.906 146.305 230.906C145.289 230.906 144.484 230.414 144.219 229.672H142.82C143.047 231.055 144.461 232.062 146.25 232.062ZM151.695 229H153.055V224.219C153.055 222.844 153.891 221.938 155.172 221.938C156.422 221.938 157.039 222.656 157.039 223.969V229H158.398V223.727C158.398 221.883 157.367 220.734 155.586 220.734C154.328 220.734 153.461 221.297 153.008 222.172H152.977V220.875H151.695V229ZM162.812 227.984C161.836 227.984 161.188 227.477 161.188 226.703C161.188 225.938 161.812 225.453 162.906 225.383L165.078 225.25V225.914C165.078 227.086 164.094 227.984 162.812 227.984ZM162.508 229.141C163.602 229.141 164.633 228.531 165.117 227.602H165.148V229H166.438V223.383C166.438 221.766 165.234 220.734 163.328 220.734C161.406 220.734 160.203 221.812 160.109 223.219H161.422C161.594 222.422 162.25 221.93 163.297 221.93C164.422 221.93 165.078 222.523 165.078 223.516V224.195L162.75 224.328C160.875 224.438 159.805 225.312 159.805 226.703C159.805 228.164 160.891 229.141 162.508 229.141ZM169.094 231.242L170.164 227.266H168.719L167.961 231.242H169.094ZM175.164 229H176.523V221.992H178.18V220.875H176.516V219.977C176.516 219.172 176.867 218.781 177.602 218.781C177.828 218.781 178.055 218.805 178.219 218.828V217.727C178.023 217.695 177.695 217.664 177.391 217.664C175.891 217.664 175.164 218.406 175.164 219.969V220.875H174.031V221.992H175.164V229ZM179.586 229H180.945V223.938C180.945 222.789 181.633 222.031 182.688 222.031C183.016 222.031 183.305 222.07 183.414 222.109V220.789C183.305 220.773 183.102 220.734 182.867 220.734C181.914 220.734 181.164 221.305 180.898 222.203H180.867V220.875H179.586V229ZM184.594 229H185.953V220.875H184.594V229ZM185.273 219.508C185.742 219.508 186.125 219.125 186.125 218.664C186.125 218.195 185.742 217.82 185.273 217.82C184.812 217.82 184.43 218.195 184.43 218.664C184.43 219.125 184.812 219.508 185.273 219.508ZM187.789 229H189.148V224.219C189.148 222.844 189.984 221.938 191.266 221.938C192.516 221.938 193.133 222.656 193.133 223.969V229H194.492V223.727C194.492 221.883 193.461 220.734 191.68 220.734C190.422 220.734 189.555 221.297 189.102 222.172H189.07V220.875H187.789V229ZM199.531 227.867C198.133 227.867 197.219 226.727 197.219 224.906C197.219 223.086 198.133 221.93 199.531 221.93C200.945 221.93 201.891 223.117 201.891 224.906C201.891 226.695 200.945 227.867 199.531 227.867ZM199.578 232.062C201.82 232.062 203.25 230.773 203.25 228.836V220.875H201.953V222.242H201.93C201.391 221.297 200.438 220.734 199.289 220.734C197.188 220.734 195.828 222.359 195.828 224.906C195.828 227.43 197.188 229.062 199.258 229.062C200.398 229.062 201.359 228.484 201.859 227.602H201.891V228.883C201.891 230.094 201.039 230.906 199.633 230.906C198.617 230.906 197.812 230.414 197.547 229.672H196.148C196.375 231.055 197.789 232.062 199.578 232.062Z" fill="white"/>
<path d="M57.9668 133.979C58.0986 137.949 61.3359 140.366 66.4189 140.366C71.6631 140.366 74.9883 137.773 74.9883 133.672C74.9883 130.449 73.1426 128.633 68.9092 127.725L66.3457 127.183C63.9141 126.626 62.8887 125.894 62.8887 124.59C62.8887 123.022 64.3535 121.982 66.5361 121.982C68.748 121.982 70.3154 123.066 70.4619 124.854H74.6074C74.5342 121.03 71.4434 118.496 66.5215 118.496C61.8047 118.496 58.4355 121.074 58.4355 124.971C58.4355 128.062 60.3545 130.039 64.251 130.874L67.0049 131.475C69.5537 132.046 70.5645 132.808 70.5645 134.185C70.5645 135.737 68.9531 136.865 66.5947 136.865C64.251 136.865 62.4346 135.723 62.2295 133.979H57.9668ZM78.4893 120.679V124.297H76.2773V127.52H78.4893V135.767C78.4893 138.828 79.9248 140.059 83.6162 140.059C84.4805 140.059 85.2129 139.985 85.6523 139.883V136.733C85.3887 136.777 84.9932 136.807 84.6123 136.807C83.3525 136.807 82.7666 136.235 82.7666 135.034V127.52H85.667V124.297H82.7666V120.679H78.4893ZM93.9287 137.158C92.4785 137.158 91.5117 136.426 91.5117 135.254C91.5117 134.141 92.4199 133.423 94.0166 133.306L97.3271 133.101V134.243C97.3271 135.942 95.7891 137.158 93.9287 137.158ZM92.5225 140.249C94.4854 140.249 96.4336 139.268 97.3125 137.598H97.4004V140H101.531V129.204C101.531 126.04 98.9092 123.96 94.8809 123.96C90.7207 123.96 88.1279 126.055 87.9668 129.102H91.8779C92.083 127.944 93.0938 127.153 94.6904 127.153C96.3018 127.153 97.3271 128.003 97.3271 129.468V130.508L93.3721 130.742C89.4609 130.977 87.2637 132.632 87.2637 135.488C87.2637 138.315 89.5342 140.249 92.5225 140.249ZM104.3 140H108.577V131.226C108.577 129.014 109.808 127.725 111.917 127.725C112.532 127.725 113.118 127.827 113.47 127.974V124.209C113.177 124.121 112.752 124.048 112.254 124.048C110.408 124.048 109.075 125.132 108.519 127.124H108.431V124.297H104.3V140ZM116.37 120.679V124.297H114.158V127.52H116.37V135.767C116.37 138.828 117.806 140.059 121.497 140.059C122.361 140.059 123.094 139.985 123.533 139.883V136.733C123.27 136.777 122.874 136.807 122.493 136.807C121.233 136.807 120.647 136.235 120.647 135.034V127.52H123.548V124.297H120.647V120.679H116.37ZM132.703 127.124C134.607 127.124 135.911 128.501 135.999 130.508H129.334C129.48 128.545 130.828 127.124 132.703 127.124ZM136.058 135.195C135.662 136.396 134.461 137.173 132.894 137.173C130.711 137.173 129.29 135.635 129.29 133.394V133.13H140.115V131.826C140.115 127.051 137.229 123.96 132.659 123.96C128.016 123.96 125.086 127.212 125.086 132.222C125.086 137.246 127.986 140.337 132.82 140.337C136.702 140.337 139.515 138.271 139.983 135.195H136.058ZM142.327 140H146.604V131.226C146.604 129.014 147.835 127.725 149.944 127.725C150.56 127.725 151.146 127.827 151.497 127.974V124.209C151.204 124.121 150.779 124.048 150.281 124.048C148.436 124.048 147.103 125.132 146.546 127.124H146.458V124.297H142.327V140ZM159.568 118.862V140H163.992V133.335H167.947C172.4 133.335 175.491 130.435 175.491 126.099C175.491 121.748 172.503 118.862 168.167 118.862H159.568ZM163.992 122.363H166.995C169.529 122.363 170.994 123.711 170.994 126.113C170.994 128.53 169.515 129.878 166.98 129.878H163.992V122.363ZM177.85 140H182.127V118.862H177.85V140ZM191.077 137.158C189.627 137.158 188.66 136.426 188.66 135.254C188.66 134.141 189.568 133.423 191.165 133.306L194.476 133.101V134.243C194.476 135.942 192.938 137.158 191.077 137.158ZM189.671 140.249C191.634 140.249 193.582 139.268 194.461 137.598H194.549V140H198.68V129.204C198.68 126.04 196.058 123.96 192.029 123.96C187.869 123.96 185.276 126.055 185.115 129.102H189.026C189.231 127.944 190.242 127.153 191.839 127.153C193.45 127.153 194.476 128.003 194.476 129.468V130.508L190.521 130.742C186.609 130.977 184.412 132.632 184.412 135.488C184.412 138.315 186.683 140.249 189.671 140.249ZM201.448 140H205.726V130.991C205.726 128.955 206.941 127.549 208.86 127.549C210.779 127.549 211.746 128.721 211.746 130.771V140H216.023V129.878C216.023 126.201 214.061 124.004 210.574 124.004C208.157 124.004 206.502 125.146 205.667 127.095H205.579V124.297H201.448V140Z" fill="white"/>
<path d="M116 71.8421H159V96.7368C159 97.337 158.762 97.9127 158.337 98.3371C157.913 98.7615 157.337 99 156.737 99H118.263C117.663 99 117.087 98.7615 116.663 98.3371C116.238 97.9127 116 97.337 116 96.7368V71.8421ZM116 61.6579C116 61.0576 116.238 60.482 116.663 60.0576C117.087 59.6332 117.663 59.3947 118.263 59.3947H156.737C157.337 59.3947 157.913 59.6332 158.337 60.0576C158.762 60.482 159 61.0576 159 61.6579V71.8421H116V61.6579Z" stroke="white" stroke-width="3" stroke-linejoin="round"/>
<path d="M128.447 85.4211L135.237 92.2105L148.816 78.6316" stroke="white" stroke-width="3" stroke-linecap="round" stroke-linejoin="round"/>
<path d="M146.553 56V65.0526M128.447 56V65.0526V56Z" stroke="white" stroke-width="3" stroke-linecap="round"/>
<defs>
<linearGradient id="paint0_linear_14_43" x1="137.5" y1="0" x2="137.5" y2="344" gradientUnits="userSpaceOnUse">
<stop stop-color="#3531A9"/>
<stop offset="1" stop-color="#4303A4"/>
</linearGradient>
</defs>
</svg>
